<svg width="64" height="64" viewBox="0 0 64 64" fill="none" xmlns="http://www.w3.org/2000/svg">
<path d="M52 8H46V6C46 5.46957 45.7893 4.96086 45.4142 4.58579C45.0391 4.21071 44.5304 4 44 4C43.4696 4 42.9609 4.21071 42.5858 4.58579C42.2107 4.96086 42 5.46957 42 6V8H22V6C22 5.46957 21.7893 4.96086 21.4142 4.58579C21.0391 4.21071 20.5304 4 20 4C19.4696 4 18.9609 4.21071 18.5858 4.58579C18.2107 4.96086 18 5.46957 18 6V8H12C10.9391 8 9.92172 8.42143 9.17157 9.17157C8.42143 9.92172 8 10.9391 8 12V52C8 53.0609 8.42143 54.0783 9.17157 54.8284C9.92172 55.5786 10.9391 56 12 56H52C53.0609 56 54.0783 55.5786 54.8284 54.8284C55.5786 54.0783 56 53.0609 56 52V12C56 10.9391 55.5786 9.92172 54.8284 9.17157C54.0783 8.42143 53.0609 8 52 8ZM42.415 33.415L30.415 45.415C30.2293 45.601 30.0087 45.7485 29.7659 45.8491C29.5231 45.9498 29.2628 46.0016 29 46.0016C28.7372 46.0016 28.4769 45.9498 28.2341 45.8491C27.9913 45.7485 27.7707 45.601 27.585 45.415L21.585 39.415C21.2097 39.0397 20.9989 38.5307 20.9989 38C20.9989 37.4693 21.2097 36.9603 21.585 36.585C21.9603 36.2097 22.4693 35.9989 23 35.9989C23.5307 35.9989 24.0397 36.2097 24.415 36.585L29 41.1725L39.585 30.585C39.7708 30.3992 39.9914 30.2518 40.2342 30.1512C40.477 30.0506 40.7372 29.9989 41 29.9989C41.2628 29.9989 41.523 30.0506 41.7658 30.1512C42.0086 30.2518 42.2292 30.3992 42.415 30.585C42.6008 30.7708 42.7482 30.9914 42.8488 31.2342C42.9494 31.477 43.0011 31.7372 43.0011 32C43.0011 32.2628 42.9494 32.523 42.8488 32.7658C42.7482 33.0086 42.6008 33.2292 42.415 33.415ZM12 20V12H18V14C18 14.5304 18.2107 15.0391 18.5858 15.4142C18.9609 15.7893 19.4696 16 20 16C20.5304 16 21.0391 15.7893 21.4142 15.4142C21.7893 15.0391 22 14.5304 22 14V12H42V14C42 14.5304 42.2107 15.0391 42.5858 15.4142C42.9609 15.7893 43.4696 16 44 16C44.5304 16 45.0391 15.7893 45.4142 15.4142C45.7893 15.0391 46 14.5304 46 14V12H52V20H12Z" fill="#008C73"/>
</svg>
