<svg width="284" height="40" viewBox="0 0 284 40" fill="none" xmlns="http://www.w3.org/2000/svg">
<line x1="42" y1="18.5" x2="242" y2="18.5" stroke="#008C73" stroke-width="3"/>
<line x1="42" y1="18.5" x2="242" y2="18.5" stroke="#008C73" stroke-width="3"/>
<circle cx="20" cy="20" r="19.5" fill="white" stroke="#008C73"/>
<circle cx="20" cy="20" r="19.5" fill="white" stroke="#008C73"/>
<circle cx="264" cy="20" r="19.5" fill="white" stroke="#008C73"/>
<circle cx="264" cy="20" r="19.5" fill="white" stroke="#008C73"/>
<path d="M13.75 12.5C13.75 11.1193 14.8693 10 16.25 10H23.75C25.1307 10 26.25 11.1193 26.25 12.5V27.5C26.25 28.8807 25.1307 30 23.75 30H16.25C14.8693 30 13.75 28.8807 13.75 27.5V12.5ZM21.25 26.25C21.25 25.5596 20.6904 25 20 25C19.3096 25 18.75 25.5596 18.75 26.25C18.75 26.9404 19.3096 27.5 20 27.5C20.6904 27.5 21.25 26.9404 21.25 26.25Z" fill="#008C73"/>
<path d="M13.75 12.5C13.75 11.1193 14.8693 10 16.25 10H23.75C25.1307 10 26.25 11.1193 26.25 12.5V27.5C26.25 28.8807 25.1307 30 23.75 30H16.25C14.8693 30 13.75 28.8807 13.75 27.5V12.5ZM21.25 26.25C21.25 25.5596 20.6904 25 20 25C19.3096 25 18.75 25.5596 18.75 26.25C18.75 26.9404 19.3096 27.5 20 27.5C20.6904 27.5 21.25 26.9404 21.25 26.25Z" fill="#008C73"/>
<path d="M258.375 10C258.72 10 259 10.2798 259 10.625V11.25H269V10.625C269 10.2798 269.28 10 269.625 10C269.97 10 270.25 10.2798 270.25 10.625V11.25H271.5C272.881 11.25 274 12.3693 274 13.75V27.5C274 28.8807 272.881 30 271.5 30H256.5C255.119 30 254 28.8807 254 27.5V13.75C254 12.3693 255.119 11.25 256.5 11.25H257.75V10.625C257.75 10.2798 258.03 10 258.375 10ZM270.818 13.75H257.182C256.805 13.75 256.5 14.0298 256.5 14.375V15.625C256.5 15.9702 256.805 16.25 257.182 16.25H270.818C271.195 16.25 271.5 15.9702 271.5 15.625V14.375C271.5 14.0298 271.195 13.75 270.818 13.75ZM267.567 21.0669C267.811 20.8229 267.811 20.4271 267.567 20.1831C267.323 19.939 266.927 19.939 266.683 20.1831L263.375 23.4911L261.942 22.0581C261.698 21.814 261.302 21.814 261.058 22.0581C260.814 22.3021 260.814 22.6979 261.058 22.9419L262.933 24.8169C263.05 24.9342 263.209 25 263.375 25C263.541 25 263.7 24.9342 263.817 24.8169L267.567 21.0669Z" fill="#008C73"/>
<path d="M258.375 10C258.72 10 259 10.2798 259 10.625V11.25H269V10.625C269 10.2798 269.28 10 269.625 10C269.97 10 270.25 10.2798 270.25 10.625V11.25H271.5C272.881 11.25 274 12.3693 274 13.75V27.5C274 28.8807 272.881 30 271.5 30H256.5C255.119 30 254 28.8807 254 27.5V13.75C254 12.3693 255.119 11.25 256.5 11.25H257.75V10.625C257.75 10.2798 258.03 10 258.375 10ZM270.818 13.75H257.182C256.805 13.75 256.5 14.0298 256.5 14.375V15.625C256.5 15.9702 256.805 16.25 257.182 16.25H270.818C271.195 16.25 271.5 15.9702 271.5 15.625V14.375C271.5 14.0298 271.195 13.75 270.818 13.75ZM267.567 21.0669C267.811 20.8229 267.811 20.4271 267.567 20.1831C267.323 19.939 266.927 19.939 266.683 20.1831L263.375 23.4911L261.942 22.0581C261.698 21.814 261.302 21.814 261.058 22.0581C260.814 22.3021 260.814 22.6979 261.058 22.9419L262.933 24.8169C263.05 24.9342 263.209 25 263.375 25C263.541 25 263.7 24.9342 263.817 24.8169L267.567 21.0669Z" fill="#008C73"/>
</svg>
