<svg width="132" height="120" viewBox="0 0 132 120" fill="none" xmlns="http://www.w3.org/2000/svg">
<path d="M131.547 105.043H-0.000244141V105.123H131.547V105.043Z" fill="#E6E6E6"/>
<path d="M117.301 107.82H112.426V107.901H117.301V107.82Z" fill="#E6E6E6"/>
<path d="M110.697 107.82H103.814V107.901H110.697V107.82Z" fill="#E6E6E6"/>
<path d="M91.9229 107.902H86.8293V107.983H91.9229V107.902Z" fill="#E6E6E6"/>
<path d="M22.3023 107.174H10.9392V107.254H22.3023V107.174Z" fill="#E6E6E6"/>
<path d="M8.59508 107.174H6.92969V107.254H8.59508V107.174Z" fill="#E6E6E6"/>
<path d="M43.3976 109.588H26.8279V109.668H43.3976V109.588Z" fill="#E6E6E6"/>
<path d="M62.3534 90.7354H11.5524C11.1544 90.7345 10.773 90.5411 10.4918 90.1976C10.2106 89.8542 10.0527 89.3887 10.0527 88.9033V1.81599C10.0562 1.33345 10.2156 0.872054 10.4964 0.532033C10.7772 0.192013 11.1567 0.000826625 11.5524 0H62.3534C62.7518 0 63.1339 0.193017 63.4157 0.53659C63.6974 0.880163 63.8557 1.34615 63.8557 1.83203V88.9033C63.8557 89.3892 63.6974 89.8552 63.4157 90.1988C63.1339 90.5424 62.7518 90.7354 62.3534 90.7354ZM11.5524 0.0641695C11.1718 0.0650194 10.8071 0.24996 10.5383 0.578398C10.2695 0.906837 10.1185 1.35193 10.1185 1.81599V88.9033C10.1185 89.3674 10.2695 89.8125 10.5383 90.1409C10.8071 90.4694 11.1718 90.6543 11.5524 90.6552H62.3534C62.7342 90.6543 63.0991 90.4695 63.3684 90.1411C63.6376 89.8128 63.7892 89.3677 63.7899 88.9033V1.81599C63.7892 1.35164 63.6376 0.906549 63.3684 0.578203C63.0991 0.249856 62.7342 0.0650177 62.3534 0.0641695H11.5524Z" fill="#E6E6E6"/>
<path d="M119.264 90.7354H68.46C68.0618 90.7345 67.6801 90.5412 67.3985 90.1978C67.117 89.8544 66.9585 89.389 66.9578 88.9033V1.81599C66.9619 1.33315 67.1219 0.871764 67.4031 0.531833C67.6844 0.191901 68.0641 0.00081761 68.46 0H119.264C119.659 0.00166984 120.038 0.193229 120.318 0.533159C120.598 0.873089 120.757 1.334 120.761 1.81599V88.9033C120.761 89.3881 120.603 89.8531 120.323 90.1965C120.042 90.5399 119.661 90.7337 119.264 90.7354ZM68.46 0.0641695C68.0793 0.0650177 67.7143 0.249856 67.445 0.578203C67.1758 0.906549 67.0242 1.35164 67.0235 1.81599V88.9033C67.0242 89.3677 67.1758 89.8128 67.445 90.1411C67.7143 90.4695 68.0793 90.6543 68.46 90.6552H119.264C119.644 90.6543 120.009 90.4695 120.279 90.1411C120.548 89.8128 120.699 89.3677 120.7 88.9033V1.81599C120.699 1.35164 120.548 0.906549 120.279 0.578203C120.009 0.249856 119.644 0.0650177 119.264 0.0641695H68.46Z" fill="#E6E6E6"/>
<path d="M110.768 9.80469H75.0662V51.3736H110.768V9.80469Z" fill="#E0E0E0"/>
<path d="M111.56 9.80469H75.8579V51.3736H111.56V9.80469Z" fill="#F5F5F5"/>
<path d="M110.136 49.4232V11.7559L77.2838 11.7559V49.4232H110.136Z" fill="white"/>
<path d="M110.136 49.4232V11.7559H109.537V49.4232H110.136Z" fill="#E0E0E0"/>
<path d="M110.971 37.7168H76.4475V40.3349H110.971V37.7168Z" fill="#F5F5F5"/>
<path d="M66.6287 84.7812H59.583V103.836H66.6287V84.7812Z" fill="#E6E6E6"/>
<path d="M91.9619 103.838H60.9377V105.044H91.9619V103.838Z" fill="#E6E6E6"/>
<path d="M66.6289 103.838H93.312V84.7828H66.6289V103.838Z" fill="#FAFAFA"/>
<path d="M69.3992 93.3789H90.5415V87.1288H69.3992V93.3789Z" fill="#E6E6E6"/>
<path d="M69.3992 101.49H90.5415V95.2402H69.3992V101.49Z" fill="#E6E6E6"/>
<path d="M83.1406 89.8242H76.8026C76.6312 89.8242 76.4922 89.9937 76.4922 90.2028V90.3023C76.4922 90.5114 76.6312 90.6809 76.8026 90.6809H83.1406C83.3121 90.6809 83.4511 90.5114 83.4511 90.3023V90.2028C83.4511 89.9937 83.3121 89.8242 83.1406 89.8242Z" fill="#FAFAFA"/>
<path d="M83.1406 97.9395H76.8026C76.6312 97.9395 76.4922 98.109 76.4922 98.318V98.4175C76.4922 98.6266 76.6312 98.7961 76.8026 98.7961H83.1406C83.3121 98.7961 83.4511 98.6266 83.4511 98.4175V98.318C83.4511 98.109 83.3121 97.9395 83.1406 97.9395Z" fill="#FAFAFA"/>
<path d="M23.5969 64.627H16.4092V102.638H23.5969V64.627Z" fill="#E6E6E6"/>
<path d="M53.2347 102.635H17.7905V105.044H53.2347V102.635Z" fill="#E6E6E6"/>
<path d="M23.597 102.635H54.6133L54.6133 64.6241H23.597L23.597 102.635Z" fill="#FAFAFA"/>
<path d="M26.4226 81.7695H51.7876V69.3014H26.4226V81.7695Z" fill="#E6E6E6"/>
<path d="M26.4226 97.957H51.7876V85.4889H26.4226V97.957Z" fill="#E6E6E6"/>
<path d="M41.9532 76.3898H36.2572C36.0718 76.3889 35.8942 76.2988 35.7631 76.1389C35.632 75.979 35.5581 75.7624 35.5574 75.5363C35.5574 75.3097 35.631 75.0923 35.7622 74.9317C35.8934 74.7712 36.0714 74.6805 36.2572 74.6797H41.9532C42.1391 74.6805 42.3171 74.7712 42.4482 74.9317C42.5794 75.0923 42.653 75.3097 42.653 75.5363C42.6524 75.7624 42.5784 75.979 42.4473 76.1389C42.3162 76.2988 42.1386 76.3889 41.9532 76.3898Z" fill="#FAFAFA"/>
<path d="M41.9532 92.578H36.2572C36.0718 92.5772 35.8942 92.487 35.7631 92.3271C35.632 92.1672 35.5581 91.9506 35.5574 91.7245C35.5581 91.4985 35.632 91.2819 35.7631 91.122C35.8942 90.9621 36.0718 90.8719 36.2572 90.8711H41.9532C42.1386 90.8719 42.3162 90.9621 42.4473 91.122C42.5784 91.2819 42.6524 91.4985 42.653 91.7245C42.653 91.9509 42.5793 92.168 42.4481 92.328C42.3168 92.4881 42.1388 92.578 41.9532 92.578Z" fill="#FAFAFA"/>
<path d="M82.8748 81.7602C82.8748 81.7602 77.5814 70.6301 84.9244 61.7715C84.9244 61.7715 86.8423 63.2923 86.8134 65.3425C86.7844 67.3927 84.7612 67.9093 85.1953 69.6194C85.6294 71.3295 87.5395 73.0043 86.2872 74.4321C85.0349 75.8598 86.4871 77.1015 86.4029 78.8341C86.3188 80.5667 82.8748 81.7602 82.8748 81.7602Z" fill="#FAFAFA"/>
<path d="M75.1348 78.582C75.1348 78.582 75.3163 84.784 82.2567 84.784C89.1972 84.784 89.3761 78.582 89.3761 78.582H75.1348Z" fill="#E6E6E6"/>
<path d="M83.275 82.7781C83.275 82.7781 85.4192 70.1784 76.1714 64.5957C76.1714 64.5957 74.7481 66.7807 75.3059 68.7122C75.8636 70.6437 77.9158 70.3581 77.9368 72.1484C77.9579 73.9388 76.5845 76.2649 78.142 77.1215C79.6995 77.9782 78.6393 79.7365 79.1681 81.3471C79.6969 82.9578 83.275 82.7781 83.275 82.7781Z" fill="#E6E6E6"/>
<path d="M41.0559 29.1445C41.0559 29.1445 41.2374 32.8728 48.1753 32.8728C55.1131 32.8728 55.2972 29.1445 55.2972 29.1445H41.0559Z" fill="#F0F0F0"/>
<path d="M22.2393 35.5879L21.1001 44.8571H22.2393L29.2271 35.5879H22.2393Z" fill="#F5F5F5"/>
<path d="M21.1001 35.5879V44.8571L28.0879 35.5879H21.1001Z" fill="#E0E0E0"/>
<path d="M49.6462 35.5879L48.5044 44.8571H49.6462L56.634 35.5879H49.6462Z" fill="#F5F5F5"/>
<path d="M48.5044 35.5879V44.8571L55.4948 35.5879H48.5044Z" fill="#E0E0E0"/>
<path d="M15.9673 35.7637H23.5681V32.8728H15.9673V35.7637Z" fill="#E0E0E0"/>
<path d="M61.3589 32.875H23.5706V35.7658H61.3589V32.875Z" fill="#F5F5F5"/>
<path d="M31.3344 20.9969C33.2997 21.3178 34.5152 16.1233 30.1768 11.7148C30.4109 16.8163 27.9115 20.4226 31.3344 20.9969Z" fill="#E0E0E0"/>
<path d="M32.7786 27.8156C35.6253 25.3804 33.6757 16.8748 24.8621 17.4908C28.6769 23.7409 27.8114 32.0572 32.7786 27.8156Z" fill="#E0E0E0"/>
<path d="M31.7737 27.7603C29.8794 25.2737 32.563 19.0172 39.3851 21.3016C35.5386 25.4213 35.0729 32.0853 31.7737 27.7603Z" fill="#E0E0E0"/>
<path d="M34.2023 24.1333C34.8574 23.1707 35.6309 22.067 35.4441 20.9248C35.2573 19.7826 34.7864 18.9067 35.16 17.6746C35.6072 16.1987 35.5204 14.4373 34.7653 14.5849C34.0102 14.7325 33.1631 15.8137 33.1868 17.2415C33.2104 18.6692 32.458 19.0703 31.7608 19.8082C31.0636 20.5462 30.7926 21.6178 30.6663 22.6959C30.4479 24.3707 28.6668 24.053 28.1932 25.5097C27.7065 26.915 28.6799 28.7887 30.2375 29.2187C31.795 29.6486 32.9052 29.9181 33.9681 28.4358C35.0468 26.8348 33.2315 25.5257 34.2023 24.1333Z" fill="#F5F5F5"/>
<path d="M28.8404 32.8723H34.6943L35.1363 28.127H28.3984L28.8404 32.8723Z" fill="#E6E6E6"/>
<path d="M27.9643 28.9746H35.573V27.9287H27.9643V28.9746Z" fill="#E6E6E6"/>
<path d="M47.8459 59.5098H41.4895V64.6209H47.8459V59.5098Z" fill="#F5F5F5"/>
<path d="M36.717 64.627H41.4895V59.5159H36.717V64.627Z" fill="#E0E0E0"/>
<path d="M34.8548 56.7891H32.1292V64.6241H34.8548V56.7891Z" fill="#F5F5F5"/>
<path d="M30.0823 64.627H32.1292V56.7919H30.0823V64.627Z" fill="#E0E0E0"/>
<path d="M65.7739 119.533C93.9468 119.533 116.785 117.907 116.785 115.902C116.785 113.896 93.9468 112.27 65.7739 112.27C37.6011 112.27 14.7625 113.896 14.7625 115.902C14.7625 117.907 37.6011 119.533 65.7739 119.533Z" fill="#F5F5F5"/>
<path d="M41.3528 56.7309C41.6559 56.8935 41.9767 57.0016 42.3052 57.0517C42.9807 57.152 43.6635 56.9589 44.2337 56.5063C45.1361 55.794 45.6834 54.5459 45.5966 53.3973C45.5919 53.3411 45.5702 53.2892 45.5355 53.2517C45.5009 53.2143 45.456 53.1941 45.4098 53.1952C44.593 53.188 43.7852 53.4026 43.0449 53.8232C42.3045 54.2438 41.6501 54.86 41.1292 55.6272C40.8819 54.3438 40.6635 52.9866 40.5057 51.5877C40.9435 51.9966 41.458 52.2657 42.0027 52.3706C42.2281 52.404 42.4565 52.392 42.6788 52.3353C43.8549 52.0401 44.7836 50.5033 45.6308 48.883C45.6464 48.8539 45.6568 48.8212 45.6613 48.7869C45.6658 48.7527 45.6644 48.7176 45.6571 48.6841C45.65 48.6517 45.6368 48.6217 45.6185 48.5966C45.6002 48.5716 45.5774 48.5521 45.5518 48.5397C43.4076 47.4488 41.1345 49.807 40.4083 50.6573C40.2979 49.4791 40.2391 48.2945 40.2321 47.1087C40.6908 47.2868 41.162 47.4135 41.6396 47.4873C42.7946 47.6509 43.7654 47.4071 44.46 46.7526C45.2835 45.9825 45.665 44.7024 45.5624 43.0564C45.5602 43.0249 45.5527 42.9943 45.5402 42.9665C45.5278 42.9387 45.5108 42.9144 45.4903 42.8951C45.4697 42.8757 45.4461 42.8619 45.4209 42.8543C45.3957 42.8467 45.3695 42.8456 45.344 42.8511C42.9025 43.2842 41.0266 45.19 40.2452 46.1077C40.2452 45.8959 40.2452 45.6841 40.2636 45.466C40.2666 45.4134 40.2545 45.3613 40.2294 45.3184C40.2079 44.9158 40.1132 44.524 39.9521 44.1716C39.791 43.8192 39.5676 43.515 39.2981 43.281C38.6851 42.7965 37.8274 42.7324 36.746 43.0853C36.7142 43.0965 36.6846 43.1156 36.6593 43.1416C36.6339 43.1676 36.6132 43.1998 36.5987 43.2361C36.5844 43.2704 36.5769 43.3083 36.5769 43.3468C36.5769 43.3853 36.5844 43.4232 36.5987 43.4575C36.6434 43.5505 37.5879 45.4948 39.2533 45.7355C39.4336 45.7549 39.615 45.7549 39.7953 45.7355C39.7743 46.3194 39.7664 46.9066 39.7743 47.4937C39.1945 46.8875 38.5132 46.4431 37.7779 46.1915C37.0426 45.9399 36.2711 45.8872 35.5174 46.0371C35.4578 46.0488 35.4042 46.0878 35.3674 46.1462C35.35 46.1742 35.3377 46.2065 35.3314 46.2408C35.325 46.2751 35.3248 46.3106 35.3306 46.3451C35.6621 48.3311 36.4645 49.6691 37.4774 49.9193C37.5222 49.9193 37.5695 49.9386 37.6195 49.9482C38.1457 50.022 38.8982 49.8327 39.8137 48.7707C39.8782 50.1278 40.0038 51.4795 40.19 52.8198C39.306 52.1235 37.2775 50.8498 35.4727 52.0882C35.4269 52.1178 35.3917 52.1668 35.3738 52.226C35.3558 52.2852 35.3564 52.3504 35.3753 52.4091C36.1094 54.2187 36.9092 55.162 37.8247 55.2967H37.8484C38.6114 55.3962 39.427 54.9342 40.3504 53.8978C40.5583 55.2069 40.8056 56.4646 41.0687 57.6325C40.2163 56.763 39.1271 56.7245 37.7037 57.5041C37.6726 57.5216 37.6451 57.5474 37.6232 57.5797C37.6013 57.6119 37.5857 57.6496 37.5774 57.6902C37.5692 57.7287 37.5694 57.7692 37.5782 57.8076C37.587 57.8459 37.604 57.8807 37.6274 57.9084C37.6879 57.9822 38.7219 59.1918 39.9953 59.3682C40.4818 59.4428 40.9755 59.3389 41.4133 59.0699C41.9352 61.2061 42.5715 63.2982 43.3182 65.3328C43.3331 65.3711 43.3561 65.404 43.3847 65.4282C43.4133 65.4524 43.4466 65.4671 43.4813 65.4707C43.5282 65.4762 43.5754 65.4663 43.6181 65.4419C43.6722 65.4098 43.7143 65.3538 43.7358 65.2853C43.7573 65.2168 43.7566 65.1408 43.7338 65.0729C42.751 62.378 41.9546 59.5876 41.3528 56.7309Z" fill="#008C73"/>
<g opacity="0.6">
<path d="M41.325 56.5297C41.6281 56.6923 41.9489 56.8004 42.2774 56.8506C42.9528 56.9509 43.6356 56.7577 44.2059 56.3051C45.1083 55.5928 45.6555 54.3448 45.5687 53.1961C45.5641 53.14 45.5423 53.088 45.5077 53.0505C45.4731 53.0131 45.4282 52.9929 45.3819 52.994C44.5652 52.9869 43.7574 53.2014 43.017 53.622C42.2767 54.0427 41.6223 54.6589 41.1014 55.426C40.8541 54.1426 40.6357 52.7854 40.4778 51.3865C40.9156 51.7954 41.4302 52.0645 41.9748 52.1694C42.2003 52.2028 42.4287 52.1909 42.651 52.1341C43.827 51.8389 44.7558 50.3021 45.6029 48.6818C45.6185 48.6528 45.6289 48.62 45.6335 48.5858C45.638 48.5515 45.6366 48.5164 45.6292 48.4829C45.6221 48.4505 45.6089 48.4205 45.5907 48.3955C45.5724 48.3704 45.5496 48.3509 45.524 48.3385C43.3798 47.2476 41.1066 49.6059 40.3805 50.4561C40.2701 49.2779 40.2113 48.0934 40.2042 46.9075C40.663 47.0856 41.1341 47.2123 41.6118 47.2861C42.7668 47.4498 43.7376 47.2059 44.4322 46.5514C45.2556 45.7814 45.6371 44.5012 45.5345 42.8552C45.5324 42.8237 45.5248 42.7931 45.5124 42.7653C45.5 42.7375 45.483 42.7132 45.4624 42.6939C45.4419 42.6746 45.4183 42.6607 45.3931 42.6531C45.3679 42.6455 45.3417 42.6444 45.3162 42.6499C42.8746 43.083 40.9988 44.9889 40.2174 45.9065C40.2174 45.6947 40.2174 45.483 40.2358 45.2648C40.2387 45.2123 40.2266 45.1601 40.2016 45.1172C40.1801 44.7146 40.0854 44.3229 39.9243 43.9705C39.7632 43.6181 39.5398 43.3138 39.2702 43.0798C38.6572 42.5954 37.7995 42.5312 36.7182 42.8841C36.6864 42.8953 36.6568 42.9145 36.6314 42.9405C36.606 42.9664 36.5854 42.9986 36.5709 43.0349C36.5566 43.0692 36.5491 43.1071 36.5491 43.1456C36.5491 43.1841 36.5566 43.222 36.5709 43.2563C36.6156 43.3493 37.5601 45.2937 39.2255 45.5343C39.4058 45.5537 39.5872 45.5537 39.7675 45.5343C39.7464 46.1183 39.7385 46.7054 39.7464 47.2925C39.1667 46.6864 38.4853 46.2419 37.75 45.9903C37.0148 45.7387 36.2433 45.686 35.4896 45.8359C35.43 45.8476 35.3764 45.8867 35.3396 45.945C35.3222 45.973 35.3099 46.0053 35.3036 46.0396C35.2972 46.0739 35.2969 46.1095 35.3028 46.1439C35.6343 48.13 36.4367 49.4679 37.4496 49.7181C37.4943 49.7181 37.5417 49.7374 37.5917 49.747C38.1179 49.8208 38.8703 49.6315 39.7859 48.5695C39.8504 49.9266 39.976 51.2783 40.1621 52.6186C39.2781 51.9224 37.2497 50.6486 35.4448 51.8871C35.3991 51.9166 35.3639 51.9656 35.3459 52.0248C35.328 52.084 35.3285 52.1492 35.3475 52.2079C36.0815 54.0175 36.8813 54.9608 37.7969 55.0955H37.8206C38.5836 55.195 39.3991 54.733 40.3226 53.6966C40.5305 55.0057 40.7778 56.2634 41.0409 57.4313C40.1884 56.5618 39.0992 56.5233 37.6759 57.303C37.6447 57.3205 37.6172 57.3463 37.5954 57.3785C37.5735 57.4107 37.5579 57.4485 37.5496 57.489C37.5413 57.5276 37.5416 57.568 37.5504 57.6064C37.5592 57.6447 37.5761 57.6795 37.5996 57.7072C37.6601 57.781 38.6941 58.9906 39.9674 59.1671C40.4539 59.2416 40.9476 59.1377 41.3855 58.8687C41.9074 61.0049 42.5437 63.0971 43.2903 65.1316C43.3053 65.1699 43.3282 65.2028 43.3568 65.227C43.3855 65.2512 43.4188 65.2659 43.4534 65.2696C43.5003 65.2751 43.5476 65.2651 43.5903 65.2407C43.6444 65.2086 43.6865 65.1527 43.708 65.0841C43.7295 65.0156 43.7288 64.9397 43.706 64.8717C42.7232 62.1768 41.9267 59.3864 41.325 56.5297Z" fill="black"/>
</g>
<path d="M109.934 49.1934H46.3179C45.2732 49.1934 44.4263 50.2262 44.4263 51.5002V99.2807C44.4263 100.555 45.2732 101.588 46.3179 101.588H109.934C110.979 101.588 111.826 100.555 111.826 99.2807V51.5002C111.826 50.2262 110.979 49.1934 109.934 49.1934Z" fill="#008C73"/>
<path opacity="0.6" d="M109.934 49.1934H46.3179C45.2732 49.1934 44.4263 50.2262 44.4263 51.5002V99.2807C44.4263 100.555 45.2732 101.588 46.3179 101.588H109.934C110.979 101.588 111.826 100.555 111.826 99.2807V51.5002C111.826 50.2262 110.979 49.1934 109.934 49.1934Z" fill="black"/>
<path d="M86.7478 115.9H71.0095C72.5512 108.809 71.6277 101.17 68.2417 94.082H83.98C87.3661 101.17 88.2895 108.809 86.7478 115.9Z" fill="#008C73"/>
<path d="M85.9269 115.9H70.186C71.7277 108.809 70.8069 101.17 67.4182 94.082H83.1592C86.5584 101.17 87.4687 108.809 85.9269 115.9Z" fill="#008C73"/>
<path d="M86.4637 104.274H70.5517C70.0052 100.681 68.9445 97.2339 67.4182 94.0898H83.3302C84.8543 97.2352 85.9148 100.682 86.4637 104.274Z" fill="#008C73"/>
<g opacity="0.4">
<path d="M86.7478 115.902H71.0095C72.5512 108.811 71.6277 101.171 68.2417 94.084H83.98C87.3661 101.171 88.2895 108.811 86.7478 115.902Z" fill="black"/>
<path d="M85.9265 115.902H70.1855C71.7272 108.811 70.8064 101.171 67.4177 94.084H83.1587C86.5579 101.171 87.4682 108.811 85.9265 115.902Z" fill="black"/>
<path d="M86.4632 104.274H70.5512C70.0047 100.681 68.9441 97.2339 67.4177 94.0898H83.3297C84.8538 97.2352 85.9143 100.682 86.4632 104.274Z" fill="black"/>
</g>
<path d="M85.9269 115.9H70.186C71.7277 108.809 70.8069 101.17 67.4182 94.082H83.1592C86.5584 101.17 87.4687 108.809 85.9269 115.9Z" fill="#008C73"/>
<path opacity="0.2" d="M85.9269 115.9H70.186C71.7277 108.809 70.8069 101.17 67.4182 94.082H83.1592C86.5584 101.17 87.4687 108.809 85.9269 115.9Z" fill="black"/>
<path opacity="0.2" d="M86.2951 104.274H70.5357C69.9938 100.685 68.9432 97.2387 67.4312 94.0898H83.1905C84.7026 97.2387 85.7532 100.685 86.2951 104.274Z" fill="black"/>
<path d="M109.04 49.1934H45.4236C44.3789 49.1934 43.532 50.2262 43.532 51.5002V99.2807C43.532 100.555 44.3789 101.588 45.4236 101.588H109.04C110.085 101.588 110.932 100.555 110.932 99.2807V51.5002C110.932 50.2262 110.085 49.1934 109.04 49.1934Z" fill="#008C73"/>
<path opacity="0.3" d="M109.04 49.1934H45.4236C44.3789 49.1934 43.532 50.2262 43.532 51.5002V99.2807C43.532 100.555 44.3789 101.588 45.4236 101.588H109.04C110.085 101.588 110.932 100.555 110.932 99.2807V51.5002C110.932 50.2262 110.085 49.1934 109.04 49.1934Z" fill="black"/>
<path d="M83.0063 114.385H65.0369C64.7069 114.385 64.3903 114.545 64.157 114.829C63.9236 115.114 63.7925 115.5 63.7925 115.902H84.2507C84.2507 115.5 84.1196 115.114 83.8863 114.829C83.6529 114.545 83.3364 114.385 83.0063 114.385Z" fill="#008C73"/>
<path opacity="0.3" d="M83.0063 114.385H65.0369C64.7069 114.385 64.3903 114.545 64.157 114.829C63.9236 115.114 63.7925 115.5 63.7925 115.902H84.2507C84.2507 115.5 84.1196 115.114 83.8863 114.829C83.6529 114.545 83.3364 114.385 83.0063 114.385Z" fill="black"/>
<path d="M110.932 51.8477H43.532V94.0807H110.932V51.8477Z" fill="#008C73"/>
<path opacity="0.84" d="M110.908 51.8477H43.5081V94.0807H110.908V51.8477Z" fill="#FAFAFA"/>
<path opacity="0.23" d="M101.136 55.1094H55.7289C55.3162 55.1094 54.9817 55.5173 54.9817 56.0206V88.4132C54.9817 88.9165 55.3162 89.3244 55.7289 89.3244H101.136C101.549 89.3244 101.884 88.9165 101.884 88.4132V56.0206C101.884 55.5173 101.549 55.1094 101.136 55.1094Z" fill="#008C73"/>
<path opacity="0.67" d="M101.686 57.4629V88.4117C101.686 88.6534 101.607 88.8852 101.467 89.0561C101.327 89.2269 101.137 89.3229 100.939 89.3229H55.5314C55.3334 89.3221 55.1438 89.2258 55.0038 89.0551C54.8638 88.8844 54.7849 88.6531 54.7842 88.4117V57.4629H101.686Z" fill="#FAFAFA"/>
<path opacity="0.41" d="M101.55 58.6777H54.9214V88.1154H101.55V58.6777Z" fill="white"/>
<path opacity="0.19" d="M92.0284 78.9986C90.803 78.9986 89.6051 78.5554 88.5862 77.7252C87.5673 76.8949 86.7731 75.7149 86.3042 74.3342C85.8352 72.9535 85.7125 71.4343 85.9516 69.9686C86.1906 68.5029 86.7807 67.1565 87.6473 66.0998C88.5138 65.0431 89.6178 64.3235 90.8197 64.0319C92.0215 63.7404 93.2673 63.89 94.3995 64.4619C95.5316 65.0338 96.4993 66.0022 97.1801 67.2448C97.8609 68.4874 98.2243 69.9482 98.2243 71.4427C98.2222 73.4458 97.5688 75.3662 96.4073 76.7827C95.2458 78.1992 93.671 78.996 92.0284 78.9986ZM92.0284 63.9669C90.816 63.9669 89.6308 64.4054 88.6227 65.2268C87.6146 66.0483 86.8289 67.2158 86.3649 68.5818C85.901 69.9478 85.7796 71.451 86.0161 72.9011C86.2526 74.3512 86.8365 75.6833 87.6938 76.7288C88.5511 77.7743 89.6434 78.4863 90.8325 78.7747C92.0216 79.0632 93.2542 78.9151 94.3743 78.3493C95.4944 77.7835 96.4518 76.8253 97.1254 75.5959C97.799 74.3666 98.1585 72.9212 98.1585 71.4427C98.1571 69.4605 97.5108 67.56 96.3615 66.1584C95.2122 64.7568 93.6538 63.9686 92.0284 63.9669Z" fill="#008C73"/>
<path opacity="0.19" d="M81.6122 78.9986C80.3867 78.9986 79.1888 78.5554 78.1699 77.7252C77.151 76.8949 76.3568 75.7149 75.8879 74.3342C75.4189 72.9535 75.2962 71.4343 75.5353 69.9686C75.7744 68.5029 76.3645 67.1565 77.231 66.0998C78.0975 65.0431 79.2015 64.3235 80.4034 64.0319C81.6053 63.7404 82.8511 63.89 83.9832 64.4619C85.1154 65.0338 86.083 66.0022 86.7638 67.2448C87.4447 68.4874 87.808 69.9482 87.808 71.4427C87.8053 73.4456 87.1516 75.3655 85.9902 76.7818C84.8289 78.198 83.2545 78.9952 81.6122 78.9986ZM81.6122 63.9669C80.3997 63.9669 79.2145 64.4054 78.2064 65.2268C77.1984 66.0483 76.4126 67.2158 75.9487 68.5818C75.4847 69.9478 75.3633 71.451 75.5998 72.9011C75.8364 74.3512 76.4202 75.6833 77.2775 76.7288C78.1348 77.7743 79.2271 78.4863 80.4162 78.7747C81.6053 79.0632 82.8379 78.9151 83.958 78.3493C85.0782 77.7835 86.0356 76.8253 86.7092 75.5959C87.3827 74.3666 87.7423 72.9212 87.7423 71.4427C87.7402 69.4608 87.0937 67.5607 85.9445 66.1593C84.7953 64.7579 83.2373 63.9695 81.6122 63.9669Z" fill="#008C73"/>
<path opacity="0.19" d="M98.1925 83.2235H61.6223C61.6179 83.2236 61.6135 83.2225 61.6095 83.2203C61.6055 83.2182 61.6019 83.2151 61.5989 83.2111C61.596 83.2072 61.5937 83.2026 61.5923 83.1975C61.5909 83.1925 61.5903 83.1871 61.5907 83.1818V81.9401C61.5903 81.9348 61.5909 81.9295 61.5923 81.9244C61.5937 81.9194 61.596 81.9147 61.5989 81.9108C61.6019 81.9069 61.6055 81.9038 61.6095 81.9016C61.6135 81.8995 61.6179 81.8984 61.6223 81.8984H98.1925C98.1968 81.8984 98.2012 81.8995 98.2052 81.9016C98.2092 81.9038 98.2128 81.9069 98.2158 81.9108C98.2187 81.9147 98.221 81.9194 98.2224 81.9244C98.2238 81.9295 98.2244 81.9348 98.224 81.9401V83.1818C98.2244 83.1871 98.2238 83.1925 98.2224 83.1975C98.221 83.2026 98.2187 83.2072 98.2158 83.2111C98.2128 83.2151 98.2092 83.2182 98.2052 83.2203C98.2012 83.2225 98.1968 83.2236 98.1925 83.2235ZM61.6459 83.1433H98.1582V81.9786H61.6459V83.1433Z" fill="#008C73"/>
<path opacity="0.19" d="M100.239 85.3913H56.2387C56.2343 85.3913 56.23 85.3903 56.226 85.3881C56.222 85.386 56.2184 85.3829 56.2154 85.3789C56.2124 85.375 56.2102 85.3704 56.2087 85.3653C56.2073 85.3603 56.2068 85.3549 56.2071 85.3496V61.4401C56.2068 61.4348 56.2073 61.4295 56.2087 61.4244C56.2102 61.4194 56.2124 61.4147 56.2154 61.4108C56.2184 61.4069 56.222 61.4038 56.226 61.4016C56.23 61.3995 56.2343 61.3984 56.2387 61.3984H100.239C100.243 61.3984 100.247 61.3995 100.251 61.4016C100.255 61.4038 100.259 61.4069 100.262 61.4108C100.265 61.4147 100.267 61.4194 100.269 61.4244C100.27 61.4295 100.271 61.4348 100.27 61.4401V85.3432C100.272 85.349 100.272 85.3551 100.271 85.3609C100.27 85.3668 100.267 85.3722 100.264 85.3769C100.261 85.3816 100.257 85.3853 100.253 85.3878C100.248 85.3903 100.244 85.3915 100.239 85.3913ZM56.2808 85.3111H100.218V61.4786H56.2729L56.2808 85.3111Z" fill="#008C73"/>
<path d="M99.6524 56.2938C99.6518 56.3897 99.6747 56.4837 99.718 56.5638C99.7614 56.6439 99.8232 56.7065 99.8958 56.7437C99.9683 56.7808 100.048 56.7909 100.126 56.7725C100.203 56.7542 100.274 56.7083 100.33 56.6407C100.385 56.5731 100.424 56.4868 100.439 56.3927C100.455 56.2986 100.447 56.201 100.417 56.1123C100.387 56.0236 100.336 55.9478 100.271 55.8944C100.205 55.841 100.128 55.8125 100.05 55.8125C99.9976 55.8121 99.946 55.8242 99.8978 55.8482C99.8496 55.8722 99.8058 55.9076 99.7689 55.9523C99.7319 55.9971 99.7026 56.0503 99.6826 56.1089C99.6626 56.1675 99.6524 56.2303 99.6524 56.2938Z" fill="white"/>
<path d="M98.6424 56.7795C98.8618 56.7795 99.0397 56.5626 99.0397 56.295C99.0397 56.0275 98.8618 55.8105 98.6424 55.8105C98.423 55.8105 98.2451 56.0275 98.2451 56.295C98.2451 56.5626 98.423 56.7795 98.6424 56.7795Z" fill="white"/>
<path d="M97.2344 56.7795C97.4538 56.7795 97.6317 56.5626 97.6317 56.295C97.6317 56.0275 97.4538 55.8105 97.2344 55.8105C97.015 55.8105 96.8372 56.0275 96.8372 56.295C96.8372 56.5626 97.015 56.7795 97.2344 56.7795Z" fill="white"/>
<path d="M101.686 57.4062H54.7842V57.5282H101.686V57.4062Z" fill="#008C73"/>
<path opacity="0.47" d="M61.5456 51.8477L55.355 94.0807H61.4825L67.6731 51.8477H61.5456Z" fill="#FAFAFA"/>
<path opacity="0.47" d="M69.1677 51.8477L62.9797 94.0807H66.0422L72.2328 51.8477H69.1677Z" fill="#FAFAFA"/>
<path opacity="0.4" d="M103.412 51.8477L97.2214 94.0807H98.7553L104.943 51.8477H103.412Z" fill="white"/>
<path opacity="0.4" d="M100.715 51.8477L94.5247 94.0807H96.0585L102.246 51.8477H100.715Z" fill="white"/>
<path d="M87.2875 114.385H84.0699C83.7398 114.385 83.4233 114.545 83.1899 114.829C82.9565 115.114 82.8254 115.5 82.8254 115.902H88.5293C88.5297 115.703 88.4978 115.506 88.4356 115.322C88.3733 115.138 88.2819 114.97 88.1666 114.829C88.0512 114.688 87.9142 114.577 87.7634 114.5C87.6125 114.424 87.4508 114.385 87.2875 114.385Z" fill="#008C73"/>
<path opacity="0.4" d="M87.2875 114.385H84.0699C83.7398 114.385 83.4233 114.545 83.1899 114.829C82.9565 115.114 82.8254 115.5 82.8254 115.902H88.5293C88.5297 115.703 88.4978 115.506 88.4356 115.322C88.3733 115.138 88.2819 114.97 88.1666 114.829C88.0512 114.688 87.9142 114.577 87.7634 114.5C87.6125 114.424 87.4508 114.385 87.2875 114.385Z" fill="black"/>
<path d="M78.5207 97.9315C78.5207 98.2425 78.4451 98.5464 78.3035 98.805C78.1618 99.0635 77.9605 99.265 77.7249 99.384C77.4893 99.503 77.2301 99.5341 76.98 99.4735C76.73 99.4128 76.5003 99.2631 76.32 99.0432C76.1397 98.8233 76.0169 98.5432 75.9672 98.2382C75.9174 97.9333 75.9429 97.6172 76.0405 97.3299C76.1381 97.0426 76.3033 96.7971 76.5153 96.6243C76.7273 96.4516 76.9766 96.3594 77.2315 96.3594C77.5735 96.3594 77.9014 96.525 78.1431 96.8198C78.3849 97.1147 78.5207 97.5146 78.5207 97.9315Z" fill="#008C73"/>
<path opacity="0.5" d="M78.5207 97.9315C78.5207 98.2425 78.4451 98.5464 78.3035 98.805C78.1618 99.0635 77.9605 99.265 77.7249 99.384C77.4893 99.503 77.2301 99.5341 76.98 99.4735C76.73 99.4128 76.5003 99.2631 76.32 99.0432C76.1397 98.8233 76.0169 98.5432 75.9672 98.2382C75.9174 97.9333 75.9429 97.6172 76.0405 97.3299C76.1381 97.0426 76.3033 96.7971 76.5153 96.6243C76.7273 96.4516 76.9766 96.3594 77.2315 96.3594C77.5735 96.3594 77.9014 96.525 78.1431 96.8198C78.3849 97.1147 78.5207 97.5146 78.5207 97.9315Z" fill="black"/>
<path d="M66.2157 110.481C66.0341 102.8 66.0499 55.9597 66.4156 52.1128L66.9129 51.2754C66.9129 51.2754 66.684 52.0198 66.6287 65.1841C66.5735 78.3484 66.4998 108.527 66.5603 110.481H66.2157Z" fill="#008C73"/>
<path d="M69.1703 81.9912C71.2751 77.7176 73.5798 74.6791 75.2478 73.0075C76.9158 71.3359 72.5432 82.1902 70.8331 86.2296C69.123 90.2691 67.0156 94.7353 66.3368 98.5084C66.2052 90.8338 67.0629 86.2649 69.1703 81.9912Z" fill="#008C73"/>
<path d="M66.3789 52.651C66.8104 47.7934 66.2263 43.3048 68.3942 37.6162C70.5621 31.9275 72.2117 27.4614 74.3033 25.3855C74.8058 24.885 73.0878 34.7735 71.0909 40.3433C69.6834 44.2737 69.2309 47.0811 67.7365 49.7313C67.3866 50.3473 66.3789 52.651 66.3789 52.651Z" fill="#008C73"/>
<path d="M66.3684 78.5689C66.8051 72.5723 67.1998 66.7971 70.0228 58.2658C70.7095 56.1867 77.0737 41.6588 78.7339 40.0866C79.5468 39.3134 76.7028 48.9676 73.9245 57.0915C71.8434 63.1875 70.9805 64.933 68.6626 72.0044C67.7549 74.8054 66.3684 78.5689 66.3684 78.5689Z" fill="#008C73"/>
<path d="M62.664 48.9788C60.2961 45.0677 58.0072 42.4239 56.326 41.041C54.6448 39.6582 59.22 49.274 61.4195 53.4706C63.619 57.6673 65.6106 61.3089 66.5209 64.9473C66.0842 57.2887 65.0318 52.8931 62.664 48.9788Z" fill="#008C73"/>
<path d="M66.3684 89.1946C65.9211 85.0236 65.0003 80.1243 63.6848 76.4923C62.3693 72.8604 60.3435 67.2905 58.7334 65.4007C58.3466 64.9451 60.4172 75.7801 61.7484 78.6613C63.0797 81.5425 64.0532 84.26 64.8898 85.8931C65.1687 86.4225 66.3684 89.1946 66.3684 89.1946Z" fill="#008C73"/>
<path opacity="0.5" d="M66.149 109.909C65.9675 102.228 65.9833 55.3875 66.349 51.5405L66.8462 50.7031C66.8462 50.7031 66.6173 51.4475 66.5621 64.6118C66.5068 77.7761 66.4332 107.955 66.4937 109.909H66.149Z" fill="white"/>
<path opacity="0.5" d="M69.122 82.2412C71.2267 77.9676 73.5314 74.9291 75.1995 73.2575C76.8675 71.5859 72.4948 82.4402 70.7847 86.4796C69.0746 90.5191 66.9672 94.9853 66.2884 98.7584C66.1569 91.0838 67.0146 86.5149 69.122 82.2412Z" fill="white"/>
<path opacity="0.5" d="M66.5151 52.028C66.9466 47.1704 66.3625 42.6817 68.5304 36.9931C70.6983 31.3045 72.348 26.8383 74.4396 24.7624C74.9421 24.2619 73.2241 34.1504 71.2272 39.7203C69.8196 43.6507 69.3671 46.4581 67.8727 49.1083C67.5228 49.7243 66.5151 52.028 66.5151 52.028Z" fill="white"/>
<path opacity="0.5" d="M66.5151 78.4888C66.9519 72.4922 67.3465 66.717 70.1695 58.1857C70.8562 56.1066 77.2205 41.5787 78.8806 40.0065C79.6936 39.2333 76.8495 48.8876 74.0712 57.0114C71.9901 63.1075 71.1272 64.8529 68.8093 71.9243C67.9017 74.7253 66.5151 78.4888 66.5151 78.4888Z" fill="white"/>
<path opacity="0.5" d="M62.6513 48.9319C60.2834 45.0208 57.9945 42.377 56.3133 40.9942C54.6321 39.6113 59.2074 49.2271 61.4068 53.4238C63.6063 57.6204 65.5979 61.262 66.5082 64.9004C66.0715 57.2418 65.0191 52.8462 62.6513 48.9319Z" fill="white"/>
<path opacity="0.5" d="M66.2732 88.8353C65.8259 84.6643 64.9051 79.7649 63.5896 76.133C62.2741 72.501 60.2483 66.9311 58.6382 65.0413C58.2514 64.5857 60.322 75.4207 61.6532 78.3019C62.9845 81.1831 63.9579 83.9006 64.7946 85.5338C65.0735 86.0632 66.2732 88.8353 66.2732 88.8353Z" fill="white"/>
<path d="M71.378 115.902H61.4067L60.6543 108.914H72.1305L71.378 115.902Z" fill="#263238"/>
<path d="M72.8722 109.731H59.9095L59.5386 107.373H73.2432L72.8722 109.731Z" fill="#263238"/>
<path d="M60.4986 56.6543H30.8346C29.819 56.6543 28.9956 57.6584 28.9956 58.897V113.662C28.9956 114.901 29.819 115.905 30.8346 115.905H60.4986C61.5143 115.905 62.3376 114.901 62.3376 113.662V58.897C62.3376 57.6584 61.5143 56.6543 60.4986 56.6543Z" fill="#008C73"/>
<path opacity="0.6" d="M60.4986 56.6543H30.8346C29.819 56.6543 28.9956 57.6584 28.9956 58.897V113.662C28.9956 114.901 29.819 115.905 30.8346 115.905H60.4986C61.5143 115.905 62.3376 114.901 62.3376 113.662V58.897C62.3376 57.6584 61.5143 56.6543 60.4986 56.6543Z" fill="black"/>
<path d="M59.617 56.6543H29.953C28.9374 56.6543 28.114 57.6584 28.114 58.897V113.662C28.114 114.901 28.9374 115.905 29.953 115.905H59.617C60.6327 115.905 61.456 114.901 61.456 113.662V58.897C61.456 57.6584 60.6327 56.6543 59.617 56.6543Z" fill="#008C73"/>
<path opacity="0.3" d="M59.617 56.6543H29.953C28.9374 56.6543 28.114 57.6584 28.114 58.897V113.662C28.114 114.901 28.9374 115.905 29.953 115.905H59.617C60.6327 115.905 61.456 114.901 61.456 113.662V58.897C61.456 57.6584 60.6327 56.6543 59.617 56.6543Z" fill="black"/>
<path d="M61.4563 59.2285H28.1143V110.66H61.4563V59.2285Z" fill="#FAFAFA"/>
<path opacity="0.1" d="M61.4563 59.2285H28.1143V110.66H61.4563V59.2285Z" fill="#008C73"/>
<path opacity="0.48" d="M39.9349 59.3574L32.3052 110.789H38.1327L45.7625 59.3574H39.9349Z" fill="#FAFAFA"/>
<path opacity="0.48" d="M47.4943 59.2285L39.8645 110.663H42.777L50.4067 59.2285H47.4943Z" fill="#FAFAFA"/>
<path d="M44.7838 114.777C45.4755 114.777 46.0362 114.093 46.0362 113.25C46.0362 112.406 45.4755 111.723 44.7838 111.723C44.0922 111.723 43.5315 112.406 43.5315 113.25C43.5315 114.093 44.0922 114.777 44.7838 114.777Z" fill="#008C73"/>
<path opacity="0.5" d="M44.7838 114.777C45.4755 114.777 46.0362 114.093 46.0362 113.25C46.0362 112.406 45.4755 111.723 44.7838 111.723C44.0922 111.723 43.5315 112.406 43.5315 113.25C43.5315 114.093 44.0922 114.777 44.7838 114.777Z" fill="black"/>
<path d="M45.0734 57.8393C45.0734 57.9091 45.0565 57.9773 45.0247 58.0353C44.9929 58.0934 44.9477 58.1386 44.8948 58.1653C44.8419 58.192 44.7837 58.199 44.7276 58.1854C44.6714 58.1718 44.6199 58.1382 44.5794 58.0888C44.5389 58.0395 44.5114 57.9766 44.5002 57.9081C44.489 57.8396 44.4948 57.7687 44.5167 57.7042C44.5386 57.6397 44.5757 57.5846 44.6232 57.5458C44.6708 57.507 44.7268 57.4863 44.784 57.4863C44.8608 57.4863 44.9344 57.5235 44.9887 57.5897C45.0429 57.6559 45.0734 57.7457 45.0734 57.8393Z" fill="#008C73"/>
<path opacity="0.5" d="M45.0734 57.8393C45.0734 57.9091 45.0565 57.9773 45.0247 58.0353C44.9929 58.0934 44.9477 58.1386 44.8948 58.1653C44.8419 58.192 44.7837 58.199 44.7276 58.1854C44.6714 58.1718 44.6199 58.1382 44.5794 58.0888C44.5389 58.0395 44.5114 57.9766 44.5002 57.9081C44.489 57.8396 44.4948 57.7687 44.5167 57.7042C44.5386 57.6397 44.5757 57.5846 44.6232 57.5458C44.6708 57.507 44.7268 57.4863 44.784 57.4863C44.8608 57.4863 44.9344 57.5235 44.9887 57.5897C45.0429 57.6559 45.0734 57.7457 45.0734 57.8393Z" fill="black"/>
<path d="M86.4295 47.809L88.4369 47.3502C88.469 47.3437 88.4996 47.3286 88.5263 47.306C88.5531 47.2834 88.5754 47.2539 88.5918 47.2196C88.6081 47.1853 88.618 47.147 88.6208 47.1074C88.6236 47.0679 88.6192 47.0281 88.6079 46.9908L87.0294 41.2894C87.0046 41.2071 86.9573 41.1379 86.8954 41.0934C86.8335 41.049 86.7609 41.032 86.69 41.0455L84.6852 41.5011C84.6527 41.5076 84.6219 41.5227 84.5949 41.5455C84.5678 41.5682 84.5453 41.5981 84.5289 41.6328C84.5126 41.6675 84.5027 41.7063 84.5002 41.7462C84.4976 41.7862 84.5024 41.8263 84.5142 41.8637L86.0927 47.5651C86.1165 47.6475 86.1633 47.7171 86.2248 47.7616C86.2864 47.8062 86.3588 47.823 86.4295 47.809Z" fill="#008C73"/>
<path opacity="0.6" d="M86.4295 47.809L88.4369 47.3502C88.469 47.3437 88.4996 47.3286 88.5263 47.306C88.5531 47.2834 88.5754 47.2539 88.5918 47.2196C88.6081 47.1853 88.618 47.147 88.6208 47.1074C88.6236 47.0679 88.6192 47.0281 88.6079 46.9908L87.0294 41.2894C87.0046 41.2071 86.9573 41.1379 86.8954 41.0934C86.8335 41.049 86.7609 41.032 86.69 41.0455L84.6852 41.5011C84.6527 41.5076 84.6219 41.5227 84.5949 41.5455C84.5678 41.5682 84.5453 41.5981 84.5289 41.6328C84.5126 41.6675 84.5027 41.7063 84.5002 41.7462C84.4976 41.7862 84.5024 41.8263 84.5142 41.8637L86.0927 47.5651C86.1165 47.6475 86.1633 47.7171 86.2248 47.7616C86.2864 47.8062 86.3588 47.823 86.4295 47.809Z" fill="black"/>
<path d="M86.6766 47.7621L88.6813 47.3065C88.7138 47.3001 88.7446 47.285 88.7716 47.2622C88.7987 47.2394 88.8212 47.2096 88.8376 47.1749C88.854 47.1401 88.8638 47.1014 88.8663 47.0614C88.8689 47.0215 88.8641 46.9814 88.8524 46.944L87.2738 41.2425C87.2491 41.1603 87.2017 41.091 87.1399 41.0465C87.078 41.0021 87.0054 40.9852 86.9344 40.9987L84.9296 41.4575C84.8973 41.4634 84.8664 41.4782 84.8394 41.5006C84.8124 41.5231 84.7898 41.5526 84.7734 41.5871C84.757 41.6216 84.7471 41.6602 84.7446 41.6999C84.742 41.7397 84.7468 41.7796 84.7586 41.8168L86.3372 47.5183C86.3619 47.6005 86.4092 47.6698 86.4711 47.7142C86.533 47.7587 86.6056 47.7756 86.6766 47.7621Z" fill="#008C73"/>
<path opacity="0.3" d="M86.6766 47.7621L88.6813 47.3065C88.7138 47.3001 88.7446 47.285 88.7716 47.2622C88.7987 47.2394 88.8212 47.2096 88.8376 47.1749C88.854 47.1401 88.8638 47.1014 88.8663 47.0614C88.8689 47.0215 88.8641 46.9814 88.8524 46.944L87.2738 41.2425C87.2491 41.1603 87.2017 41.091 87.1399 41.0465C87.078 41.0021 87.0054 40.9852 86.9344 40.9987L84.9296 41.4575C84.8973 41.4634 84.8664 41.4782 84.8394 41.5006C84.8124 41.5231 84.7898 41.5526 84.7734 41.5871C84.757 41.6216 84.7471 41.6602 84.7446 41.6999C84.742 41.7397 84.7468 41.7796 84.7586 41.8168L86.3372 47.5183C86.3619 47.6005 86.4092 47.6698 86.4711 47.7142C86.533 47.7587 86.6056 47.7756 86.6766 47.7621Z" fill="black"/>
<path d="M86.2296 47.1339L88.7448 46.5596L87.3293 41.4453L84.8115 42.0196L86.2296 47.1339Z" fill="#FAFAFA"/>
<path opacity="0.14" d="M86.2296 47.1339L88.7448 46.5596L87.3293 41.4453L84.8115 42.0196L86.2296 47.1339Z" fill="#008C73"/>
<path d="M84.8115 44.2301L85.0088 43.6719L86.9031 46.2675L85.264 46.4215L84.8115 44.2301Z" fill="#E58A7B"/>
<path d="M52.4485 24.0986C54.6905 24.0986 56.508 21.8821 56.508 19.1479C56.508 16.4138 54.6905 14.1973 52.4485 14.1973C50.2064 14.1973 48.3889 16.4138 48.3889 19.1479C48.3889 21.8821 50.2064 24.0986 52.4485 24.0986Z" fill="#008C73"/>
<path d="M52.4478 25.029C52.1691 25.0292 51.891 25.0002 51.6164 24.9423L51.6611 24.6215C52.1835 24.7302 52.7173 24.7302 53.2397 24.6215L53.2844 24.9423C53.008 24.9999 52.7281 25.0289 52.4478 25.029ZM50.0457 24.2461C49.5595 23.9051 49.1259 23.4632 48.7644 22.9403L48.967 22.7317C49.3079 23.2277 49.7175 23.6469 50.1772 23.9702L50.0457 24.2461ZM54.8551 24.2461L54.7235 23.9702C55.1833 23.6469 55.5929 23.2277 55.9338 22.7317L56.1337 22.9371C55.7725 23.4547 55.3397 23.8912 54.8551 24.2269V24.2461ZM47.9252 21.1788C47.7329 20.5352 47.635 19.8553 47.6357 19.1703H47.8988C47.8948 19.8163 47.9839 20.4581 48.1619 21.0665L47.9252 21.1788ZM56.9704 21.1788L56.7231 21.0697C56.9011 20.4613 56.9902 19.8195 56.9861 19.1735H57.165H57.2492C57.2506 19.8481 57.1563 20.5178 56.9704 21.1532V21.1788ZM48.1672 17.287L47.9199 17.1779C48.111 16.5337 48.3933 15.9353 48.7539 15.41L48.9539 15.6153C48.6161 16.1048 48.35 16.6616 48.1672 17.2613V17.287ZM56.7178 17.2549C56.5364 16.6489 56.2692 16.0864 55.9285 15.5929L56.1311 15.3843C56.493 15.9066 56.7779 16.5015 56.973 17.1426L56.7178 17.2549ZM50.1615 14.3673L50.0299 14.0913C50.5174 13.7437 51.052 13.5057 51.6085 13.3887L51.6532 13.7095C51.1292 13.8145 50.6243 14.0306 50.1615 14.348V14.3673ZM54.7077 14.3673C54.2481 14.048 53.7457 13.8308 53.2239 13.7256L53.2686 13.4047C53.8239 13.5201 54.3582 13.7536 54.8472 14.0945L54.7077 14.3673Z" fill="#008C73"/>
<path d="M84.0298 44.1816H83.2405V44.5025H84.0298V44.1816Z" fill="#008C73"/>
<path d="M81.6593 44.5024H80.0807V44.1816H81.6593V44.5024ZM78.4811 44.281C77.9585 44.105 77.4615 43.8312 77.0078 43.4693L77.1525 43.203C77.5831 43.5446 78.0543 43.8033 78.5495 43.9698L78.4811 44.281ZM75.8055 42.157C75.4598 41.6491 75.1811 41.0786 74.9793 40.4662L75.224 40.3475C75.4184 40.9282 75.6846 41.4692 76.0133 41.9517L75.8055 42.157ZM74.611 38.5475C74.611 38.3839 74.611 38.2267 74.611 38.0534C74.6104 37.5588 74.6563 37.0658 74.7478 36.5839L75.0109 36.6577C74.9245 37.1154 74.8812 37.5837 74.882 38.0534C74.882 38.2106 74.882 38.3743 74.882 38.5251L74.611 38.5475ZM75.5634 34.922L75.3371 34.7583C75.6137 34.1907 75.9597 33.6778 76.3632 33.2375L76.5395 33.4781C76.1561 33.8928 75.8269 34.3764 75.5634 34.9123V34.922ZM77.826 32.4546L77.7182 32.1627C78.2111 31.8911 78.7356 31.7146 79.273 31.6397L79.3046 31.9605C78.7944 32.0293 78.2958 32.1927 77.826 32.445V32.4546ZM84.2034 31.9156H84.0298V31.5948H84.2034C84.6613 31.5944 85.1171 31.5189 85.5584 31.3702L85.6294 31.691C85.1643 31.8411 84.6846 31.9134 84.2034 31.906V31.9156ZM82.4486 31.9156H80.87V31.5948H82.4486V31.9156ZM87.1001 30.8632L86.9554 30.5969C87.3861 30.2532 87.7711 29.8312 88.0973 29.3456L88.3025 29.5478C87.959 30.0557 87.5535 30.4961 87.1001 30.8536V30.8632ZM89.1233 27.8537L88.8786 27.735C89.0681 27.151 89.1843 26.5356 89.2233 25.9094L89.4864 25.935C89.4445 26.59 89.3221 27.2335 89.1233 27.8441V27.8537ZM89.1023 24.0453C88.9843 23.4341 88.7899 22.8487 88.5261 22.3095L88.7524 22.1458C89.0299 22.7128 89.234 23.3286 89.3575 23.9715L89.1023 24.0453ZM87.5474 20.8689C87.1631 20.4526 86.7293 20.1097 86.2608 19.8518L86.3661 19.5598C86.8601 19.8289 87.3171 20.1893 87.721 20.6282L87.5474 20.8689ZM84.7796 19.3577C84.5892 19.332 84.3977 19.3191 84.2061 19.3192H83.2142V18.9983H84.2034C84.4057 18.9958 84.6078 19.0097 84.8086 19.0401L84.7796 19.3577ZM81.6225 19.3192H80.0439V18.9983H81.6225V19.3192ZM78.4653 19.3192H76.8868V18.9983H78.4653V19.3192ZM75.3082 19.3192H73.7296V18.9983H75.3082V19.3192ZM72.1511 19.3192H70.5725V18.9983H72.1511V19.3192ZM68.9939 19.3192H67.4153V18.9983H68.9939V19.3192ZM65.8368 19.3192H64.2582V18.9983H65.8368V19.3192ZM62.6796 19.3192H61.1011V18.9983H62.6796V19.3192Z" fill="#008C73"/>
<path d="M59.4753 18.9863H58.686V19.3072H59.4753V18.9863Z" fill="#008C73"/>
<path d="M52.5589 26.0605H52.3372V26.8659H52.5589V26.0605Z" fill="#008C73"/>
<path d="M24.994 79.3406H24.7756V77.7364H24.994V79.3406ZM24.994 76.1322H24.7756V74.5279H24.994V76.1322ZM49.0067 75.3076C48.7492 75.3073 48.4925 75.2729 48.2411 75.2049L48.2884 74.945C48.7073 75.0541 49.1391 75.0672 49.5618 74.9835L49.596 75.2466C49.3992 75.2813 49.2003 75.2963 49.0014 75.2915L49.0067 75.3076ZM35.4468 75.3076L35.4336 75.0381C35.8606 75.0059 36.2786 74.8741 36.6649 74.6499L36.7596 74.8905C36.3449 75.123 35.8974 75.2559 35.4415 75.2819L35.4468 75.3076ZM34.0971 75.0798C33.6642 74.9043 33.2631 74.6287 32.9158 74.268L33.0579 74.0627C33.3834 74.4017 33.7595 74.6609 34.1655 74.8263L34.0971 75.0798ZM50.8615 74.6595L50.7457 74.4317C51.1099 74.1579 51.4278 73.8018 51.6824 73.3825L51.8613 73.5429C51.5888 73.9862 51.2495 74.3619 50.8615 74.6499V74.6595ZM46.9914 74.5408C46.6153 74.2271 46.292 73.8285 46.039 73.3665L46.2231 73.2157C46.4603 73.6503 46.7641 74.0251 47.1177 74.3194L46.9914 74.5408ZM37.8409 73.8991L37.6804 73.7194C37.9689 73.3335 38.194 72.8837 38.3434 72.3943L38.5513 72.4874C38.3893 73.0024 38.1482 73.475 37.8409 73.8798V73.8991ZM32.0686 72.9879C31.8556 72.4954 31.7233 71.9571 31.6792 71.4029L31.8976 71.3772C31.9394 71.8966 32.0636 72.4011 32.2633 72.8627L32.0686 72.9879ZM24.994 72.8916H24.7756V71.2874H24.994V72.8916ZM52.4506 72.0414L52.2375 71.974C52.3066 71.6404 52.3419 71.2978 52.3427 70.9537V70.4051H52.5637V70.9537C52.5613 71.3208 52.5216 71.6862 52.4453 72.0414H52.4506ZM45.5154 71.8296C45.4671 71.5413 45.4424 71.2479 45.4417 70.9537V70.1965H45.6627V70.9537C45.6631 71.2296 45.686 71.5047 45.7312 71.7751L45.5154 71.8296ZM38.7697 70.8414H38.5513V69.2372H38.7697V70.8414ZM31.8792 69.7602H31.6582V68.1559H31.8792V69.7602ZM24.994 69.6671H24.7756V68.0629H24.994V69.6671ZM52.5637 68.7944H52.3427V67.1902H52.5637V68.7944ZM45.6706 68.5826H45.4496V67.4468C45.4506 67.2935 45.4435 67.1403 45.4286 66.988L45.647 66.956C45.6627 67.1189 45.6706 67.2828 45.6706 67.4468V68.5826ZM38.7776 67.6201H38.5592V67.4501C38.5585 66.9527 38.6279 66.4589 38.7644 65.9902L38.9722 66.0801C38.8431 66.5196 38.7772 66.9831 38.7776 67.4501V67.6201ZM31.5898 66.5741C31.4978 66.0637 31.3254 65.5798 31.082 65.1496L31.2636 64.9988C31.5181 65.4582 31.6969 65.9736 31.7897 66.5164L31.5898 66.5741ZM25.0887 66.4843L24.8756 66.4201C24.9836 65.8795 25.1766 65.3695 25.4439 64.9186L25.6202 65.0758C25.3698 65.4985 25.1876 65.9754 25.0835 66.4811L25.0887 66.4843ZM52.5637 65.5699H52.3427V63.9657H52.5637V65.5699ZM45.0471 65.5121C44.8433 65.0529 44.5691 64.6455 44.2394 64.3122L44.3788 64.1068C44.7315 64.463 45.0245 64.8988 45.2418 65.3902L45.0471 65.5121ZM39.6221 64.7485L39.4563 64.5689C39.7595 64.1525 40.1258 63.8116 40.535 63.5646L40.6324 63.8052C40.2468 64.0348 39.9018 64.3542 39.6168 64.7453L39.6221 64.7485ZM30.177 64.0619C29.8213 63.772 29.4228 63.5693 29.0036 63.4651L29.0483 63.2021C29.4951 63.3148 29.9196 63.5327 30.298 63.8437L30.177 64.0619ZM26.5463 64.0138L26.4305 63.786C26.8149 63.4857 27.244 63.2807 27.6934 63.1828L27.7328 63.4491C27.3093 63.5397 26.9044 63.7304 26.541 64.0106L26.5463 64.0138ZM43.1213 63.571C42.7962 63.4453 42.4572 63.3814 42.1162 63.3817C42.0189 63.3817 41.9426 63.3817 41.8531 63.3817L41.8373 63.1122C41.9268 63.1122 42.0189 63.1122 42.1004 63.1122C42.4644 63.1122 42.8263 63.1793 43.1739 63.3111L43.1213 63.571ZM52.5637 62.3454H52.3427V60.7412H52.5637V62.3454ZM52.5637 59.1209H52.3427V57.5167H52.5637V59.1209ZM52.5637 55.8964H52.3427V54.2922H52.5637V55.8964ZM52.5637 52.6879H52.3427V51.0837H52.5637V52.6879ZM52.5637 49.4634H52.3427V47.8592H52.5637V49.4634ZM52.5637 46.2357H52.3427V44.6315H52.5637V46.2357ZM52.5637 43.0272H52.3427V41.423H52.5637V43.0272ZM52.5637 39.8027H52.3427V38.1985H52.5637V39.8027ZM52.5637 36.5782H52.3427V34.974H52.5637V36.5782ZM52.5637 33.3698H52.3427V31.7655H52.5637V33.3698ZM52.5637 30.1452H52.3427V28.541H52.5637V30.1452Z" fill="#008C73"/>
<path d="M24.9923 80.9883H24.7705V81.7936H24.9923V80.9883Z" fill="#008C73"/>
<path d="M51.9508 21.5621C51.8463 21.5609 51.7463 21.5103 51.6719 21.4209L50.2933 19.7397C50.22 19.649 50.179 19.5268 50.179 19.3996C50.179 19.2723 50.22 19.1501 50.2933 19.0595C50.3298 19.0144 50.3732 18.9787 50.4211 18.9543C50.4689 18.9299 50.5203 18.9174 50.5722 18.9174C50.6241 18.9174 50.6754 18.9299 50.7233 18.9543C50.7712 18.9787 50.8146 19.0144 50.8511 19.0595L51.9508 20.4006L54.0424 17.8499C54.1172 17.7649 54.2162 17.7186 54.3184 17.7208C54.4206 17.723 54.5182 17.7735 54.5905 17.8617C54.6628 17.9498 54.7042 18.0688 54.706 18.1935C54.7078 18.3182 54.6699 18.4388 54.6002 18.5301L52.2323 21.4177C52.1957 21.4635 52.1519 21.4999 52.1036 21.5247C52.0552 21.5495 52.0033 21.5622 51.9508 21.5621Z" fill="white"/>
<path d="M101.423 31.1621C101.16 32.7663 100.586 35.9748 101.502 37.0496C101.502 37.0496 101.144 38.6539 98.7157 38.6539C96.0426 38.6539 97.437 37.0496 97.437 37.0496C98.8972 36.6261 98.8577 35.3074 98.6052 34.069L101.423 31.1621Z" fill="#E58A7B"/>
<path d="M96.1033 37.597C96.1033 37.3564 96.4032 37.1093 96.8399 36.9168C97.0741 36.8109 97.303 36.4099 97.6582 36.3361C97.9213 36.2815 98.2607 36.5575 98.5974 36.5286C98.8789 36.5029 99.1736 36.1692 99.4998 36.166C99.8261 36.1628 100.089 36.4869 100.41 36.5093C100.61 36.5093 100.81 36.2142 100.978 36.2334C101.147 36.2527 101.328 36.6024 101.489 36.6377C101.702 36.6826 101.941 36.4227 102.086 36.4805C102.318 36.5703 102.349 36.9521 102.452 37.0548C102.746 37.3468 102.978 37.6227 102.715 37.674C102.065 37.7991 102.039 37.3532 101.381 37.3532C100.723 37.3532 100.723 37.674 100.065 37.658C99.4077 37.6419 99.4104 37.3371 98.75 37.3371C98.0896 37.3371 98.1028 37.5585 97.4345 37.6419C96.9926 37.7322 96.5405 37.717 96.1033 37.597Z" fill="#008C73"/>
<g opacity="0.6">
<path d="M96.103 37.5931C96.103 37.3525 96.403 37.1054 96.8397 36.9129C97.0738 36.807 97.3027 36.406 97.6579 36.3322C97.921 36.2776 98.2604 36.5536 98.5972 36.5247C98.8787 36.499 99.1733 36.1653 99.4996 36.1621C99.8258 36.1589 100.089 36.483 100.41 36.5054C100.61 36.5054 100.81 36.2103 100.978 36.2295C101.147 36.2488 101.328 36.5985 101.489 36.6338C101.702 36.6787 101.941 36.4188 102.086 36.4766C102.317 36.5664 102.349 36.9482 102.452 37.0509C102.746 37.3428 102.978 37.6188 102.715 37.6701C102.065 37.7952 102.038 37.3493 101.381 37.3493C100.723 37.3493 100.723 37.6701 100.065 37.6541C99.4075 37.638 99.4101 37.3332 98.7498 37.3332C98.0894 37.3332 98.1025 37.5546 97.4343 37.638C96.9923 37.7283 96.5402 37.7131 96.103 37.5931Z" fill="black"/>
</g>
<path d="M106.201 40.502C106.543 41.3843 106.811 42.2281 107.082 43.1072C107.353 43.9863 107.572 44.8719 107.782 45.767C107.995 46.6712 108.171 47.5878 108.308 48.5135C108.371 48.9787 108.437 49.4439 108.479 49.922C108.506 50.1562 108.529 50.3936 108.542 50.6343L108.587 51.3722C108.599 51.9824 108.509 52.5891 108.324 53.1561C108.173 53.6319 107.993 54.093 107.785 54.5358C107.393 55.3599 106.953 56.149 106.469 56.8972C105.533 58.347 104.505 59.7061 103.396 60.9623L102.575 60.0383C103.01 59.3388 103.454 58.6202 103.87 57.895C104.286 57.1699 104.701 56.4448 105.077 55.7037C105.455 54.9808 105.796 54.2308 106.098 53.4577C106.238 53.104 106.355 52.7384 106.451 52.3636C106.528 52.086 106.564 51.7936 106.556 51.5006L106.49 50.8942C106.472 50.6856 106.443 50.4771 106.409 50.2525C106.353 49.8354 106.277 49.4151 106.201 48.998C106.125 48.5809 106.038 48.1638 105.938 47.7467C105.838 47.3296 105.748 46.9125 105.643 46.4986C105.435 45.6708 105.196 44.8462 104.949 44.0313C104.701 43.2163 104.422 42.3885 104.159 41.6281L106.201 40.502Z" fill="#E58A7B"/>
<path d="M105.304 37.6596C106.22 37.9034 107.196 41.9204 107.196 41.9204L103.591 44.7246C103.591 44.7246 102.46 41.5162 102.897 40.1173C103.354 38.6735 104.223 37.3708 105.304 37.6596Z" fill="#008C73"/>
<path opacity="0.6" d="M105.304 37.6596C106.22 37.9034 107.196 41.9204 107.196 41.9204L103.591 44.7246C103.591 44.7246 102.46 41.5162 102.897 40.1173C103.354 38.6735 104.223 37.3708 105.304 37.6596Z" fill="white"/>
<path opacity="0.28" d="M104.815 39.0273L103.583 44.6999V44.7256L105.025 43.6026L104.815 39.0273Z" fill="#008C73"/>
<path d="M93.7118 37.7394C93.7118 37.7394 92.6594 38.1918 94.7642 53.9582H103.709C103.559 49.5177 103.554 46.7777 105.288 37.6624C104.034 37.3469 102.764 37.1421 101.486 37.0496C100.133 36.934 98.7747 36.934 97.4215 37.0496C95.6929 37.2453 93.7118 37.7394 93.7118 37.7394Z" fill="#008C73"/>
<path opacity="0.6" d="M93.7118 37.7394C93.7118 37.7394 92.6594 38.1918 94.7642 53.9582H103.709C103.559 49.5177 103.554 46.7777 105.288 37.6624C104.034 37.3469 102.764 37.1421 101.486 37.0496C100.133 36.934 98.7747 36.934 97.4215 37.0496C95.6929 37.2453 93.7118 37.7394 93.7118 37.7394Z" fill="white"/>
<path d="M103.002 59.6774L100.871 58.8945L101.76 61.4036C101.76 61.4036 103.167 61.5704 103.675 60.6399L103.002 59.6774Z" fill="#E58A7B"/>
<path d="M99.1448 59.7257L99.9814 61.7759L101.76 61.4133L100.871 58.9043L99.1448 59.7257Z" fill="#E58A7B"/>
<path d="M108.64 114.457H106.438L105.728 108.232H107.932L108.64 114.457Z" fill="#E58A7B"/>
<path d="M98.6263 114.457H96.4242L96.2769 108.232H98.479L98.6263 114.457Z" fill="#E58A7B"/>
<path d="M96.2769 108.236L96.3532 111.442H98.5579L98.4816 108.236H96.2769Z" fill="#CF6F64"/>
<path d="M107.932 108.236H105.728L106.093 111.442H108.298L107.932 108.236Z" fill="#CF6F64"/>
<path d="M97.1292 53.9581C97.1292 53.9581 98.4078 72.4068 99.7364 82.8022C100.807 91.1988 105.561 110.825 105.561 110.825H108.566C108.566 110.825 106.09 91.8694 105.546 83.553C104.17 62.5376 106.582 58.819 103.717 53.9453L97.1292 53.9581Z" fill="#008C73"/>
<path opacity="0.6" d="M97.1292 53.9581C97.1292 53.9581 98.4078 72.4068 99.7364 82.8022C100.807 91.1988 105.561 110.825 105.561 110.825H108.566C108.566 110.825 106.09 91.8694 105.546 83.553C104.17 62.5376 106.582 58.819 103.717 53.9453L97.1292 53.9581Z" fill="black"/>
<path opacity="0.4" d="M99.8603 61.2148C99.8603 61.2148 98.629 65.8928 98.6474 72.6402C98.8605 74.9214 99.0868 77.1866 99.3183 79.2849C100.023 77.3278 101.32 71.6231 99.8603 61.2148Z" fill="black"/>
<path d="M94.7667 53.9551C94.7667 53.9551 93.0277 74.6593 93.1724 82.8537C93.3223 91.3786 95.8849 110.822 95.8849 110.822H98.8631C98.8631 110.822 98.3922 91.892 98.6553 83.505C98.942 74.377 101.32 53.9551 101.32 53.9551H94.7667Z" fill="#008C73"/>
<path opacity="0.6" d="M94.7667 53.9551C94.7667 53.9551 93.0277 74.6593 93.1724 82.8537C93.3223 91.3786 95.8849 110.822 95.8849 110.822H98.8631C98.8631 110.822 98.3922 91.892 98.6553 83.505C98.942 74.377 101.32 53.9551 101.32 53.9551H94.7667Z" fill="black"/>
<path d="M105.546 114.616C105.397 114.632 105.248 114.583 105.125 114.478C105.089 114.435 105.061 114.381 105.046 114.322C105.031 114.262 105.028 114.199 105.038 114.138C105.041 114.1 105.053 114.063 105.071 114.031C105.09 114 105.115 113.975 105.144 113.959C105.407 113.821 106.07 114.344 106.143 114.405C106.152 114.411 106.159 114.421 106.163 114.432C106.167 114.444 106.169 114.456 106.167 114.469C106.166 114.481 106.161 114.493 106.154 114.502C106.147 114.511 106.138 114.518 106.128 114.52C105.937 114.578 105.742 114.61 105.546 114.616ZM105.251 114.061C105.229 114.06 105.206 114.065 105.186 114.077C105.17 114.077 105.149 114.103 105.144 114.158C105.135 114.197 105.136 114.239 105.145 114.279C105.154 114.318 105.172 114.354 105.196 114.382C105.307 114.507 105.596 114.523 105.986 114.43C105.765 114.246 105.515 114.12 105.251 114.061Z" fill="#008C73"/>
<path d="M106.114 114.524C106.106 114.527 106.098 114.527 106.09 114.524C105.88 114.38 105.48 113.799 105.527 113.498C105.536 113.448 105.558 113.403 105.59 113.37C105.622 113.337 105.662 113.319 105.704 113.318C105.743 113.311 105.784 113.315 105.822 113.33C105.861 113.345 105.896 113.37 105.925 113.404C106.164 113.661 106.167 114.438 106.167 114.47C106.167 114.481 106.164 114.492 106.16 114.501C106.155 114.511 106.148 114.519 106.14 114.524C106.132 114.527 106.123 114.527 106.114 114.524ZM105.74 113.433H105.717C105.651 113.433 105.635 113.478 105.63 113.507C105.601 113.693 105.851 114.13 106.059 114.332C106.065 114.032 105.994 113.737 105.856 113.488C105.825 113.452 105.783 113.433 105.74 113.433Z" fill="#008C73"/>
<path d="M95.5192 114.614C95.3338 114.632 95.1487 114.575 94.993 114.451C94.9568 114.411 94.9293 114.361 94.9132 114.305C94.8971 114.249 94.8929 114.188 94.9009 114.13C94.902 114.095 94.9106 114.061 94.9259 114.031C94.9411 114.001 94.9624 113.977 94.9878 113.96C95.2509 113.78 96.1375 114.329 96.2348 114.39C96.2449 114.396 96.2532 114.406 96.2584 114.418C96.2636 114.43 96.2655 114.444 96.2638 114.457C96.2622 114.47 96.2573 114.482 96.2497 114.491C96.2421 114.501 96.2323 114.507 96.2217 114.508C95.9908 114.571 95.7556 114.606 95.5192 114.614ZM95.1272 114.059C95.0937 114.057 95.0604 114.065 95.0299 114.082C95.0197 114.089 95.0111 114.099 95.0052 114.112C94.9992 114.124 94.9959 114.138 94.9957 114.152C94.9915 114.189 94.9949 114.227 95.0054 114.262C95.016 114.298 95.0334 114.329 95.0562 114.354C95.1903 114.502 95.5534 114.528 96.0401 114.428C95.7553 114.243 95.4465 114.118 95.1272 114.059Z" fill="#008C73"/>
<path d="M96.2032 114.522H96.1822C95.9191 114.378 95.3929 113.797 95.4403 113.492C95.4403 113.422 95.4929 113.332 95.6376 113.313C95.6895 113.307 95.742 113.313 95.7918 113.333C95.8415 113.352 95.8875 113.383 95.927 113.425C96.2032 113.704 96.2532 114.429 96.2558 114.458C96.2565 114.469 96.2549 114.48 96.2512 114.49C96.2475 114.5 96.2419 114.509 96.2348 114.516C96.2251 114.522 96.214 114.525 96.2032 114.522ZM95.677 113.432H95.6455C95.5507 113.432 95.5429 113.489 95.5402 113.505C95.5165 113.688 95.8691 114.147 96.1375 114.34C96.1154 114.035 96.0171 113.746 95.8559 113.512C95.8067 113.461 95.7443 113.432 95.6797 113.432H95.677Z" fill="#008C73"/>
<path d="M96.1269 28.3335C96.11 28.3357 96.0928 28.3331 96.0768 28.3258C96.0609 28.3186 96.0465 28.307 96.0348 28.2918C95.9504 28.1689 95.843 28.0724 95.7217 28.0104C95.6004 27.9485 95.4687 27.9228 95.3376 27.9357C95.3101 27.9403 95.2822 27.9314 95.26 27.9109C95.2378 27.8905 95.2231 27.8602 95.2192 27.8266C95.2161 27.7936 95.2233 27.7604 95.2394 27.7336C95.2555 27.7068 95.2793 27.6885 95.306 27.6822C95.4714 27.6653 95.6376 27.6963 95.7913 27.7727C95.9449 27.8491 96.0815 27.9687 96.19 28.1218C96.2087 28.1461 96.2191 28.1783 96.2191 28.2116C96.2191 28.245 96.2087 28.2771 96.19 28.3014C96.172 28.3195 96.1501 28.3307 96.1269 28.3335Z" fill="#263238"/>
<path d="M95.6691 29.9297C95.5703 30.4465 95.4136 30.9442 95.2034 31.4088C95.3022 31.4715 95.4111 31.5072 95.5225 31.5133C95.6338 31.5194 95.7449 31.4958 95.848 31.4441L95.6691 29.9297Z" fill="#DF5753"/>
<path d="M95.7852 29.5185C95.8088 29.7335 95.7378 29.9228 95.622 29.942C95.5063 29.9613 95.3931 29.804 95.3589 29.5923C95.3247 29.3805 95.4063 29.1848 95.5221 29.1656C95.6378 29.1463 95.7667 29.3164 95.7852 29.5185Z" fill="#263238"/>
<path d="M95.5824 29.1988L95.1431 29.125C95.1431 29.125 95.4062 29.4715 95.5824 29.1988Z" fill="#263238"/>
<path d="M106.29 114.147H108.766C108.808 114.145 108.849 114.163 108.881 114.197C108.914 114.231 108.934 114.278 108.939 114.329L109.224 116.72C109.229 116.78 109.223 116.841 109.208 116.899C109.192 116.957 109.167 117.01 109.133 117.055C109.1 117.101 109.059 117.137 109.013 117.161C108.968 117.186 108.918 117.198 108.868 117.198C108.005 117.179 107.59 117.118 106.5 117.118C105.832 117.118 104.854 117.201 103.927 117.201C103.001 117.201 102.954 116.084 103.338 115.985C105.067 115.533 105.338 114.907 105.922 114.31C106.025 114.204 106.155 114.146 106.29 114.147Z" fill="#263238"/>
<path d="M96.3485 114.146H98.8242C98.8668 114.146 98.908 114.164 98.9404 114.198C98.9728 114.231 98.9942 114.278 99.0005 114.329L99.282 116.72C99.2872 116.78 99.2819 116.841 99.2665 116.898C99.2512 116.956 99.2261 117.009 99.1928 117.054C99.1596 117.099 99.119 117.135 99.0736 117.16C99.0283 117.185 98.9792 117.198 98.9295 117.198C98.0665 117.178 97.6508 117.118 96.5616 117.118C95.8907 117.118 94.5068 117.201 93.5807 117.201C92.6547 117.201 92.6073 116.084 92.9914 115.985C94.7173 115.533 95.3987 114.907 95.9802 114.31C96.0837 114.205 96.2139 114.147 96.3485 114.146Z" fill="#263238"/>
<path opacity="0.28" d="M93.4539 40.2852V40.3493C93.4802 42.1429 93.6828 45.162 94.2931 50.2378L95.5402 44.2797L93.4539 40.2852Z" fill="#008C73"/>
<path d="M95.2246 41.2067C94.9773 42.7307 94.6984 44.2227 94.3669 45.721C94.0354 47.2194 93.6986 48.7081 93.2619 50.2129L93.0909 50.7744L92.9041 51.339C92.8621 51.4728 92.8119 51.6026 92.7541 51.7273C92.6817 51.8934 92.5934 52.0485 92.491 52.1893C92.2525 52.5095 91.9395 52.7333 91.5939 52.831C91.3047 52.9114 91.0043 52.9114 90.7151 52.831C90.4947 52.7756 90.2802 52.6894 90.0758 52.5743C89.7367 52.3805 89.4156 52.1427 89.1182 51.8652C88.5865 51.366 88.0918 50.8109 87.6396 50.2065C87.4133 49.9177 87.2028 49.6161 86.9976 49.3113C86.7924 49.0065 86.5951 48.7017 86.4004 48.3648L87.2344 47.4632C88.1191 48.4375 89.0745 49.3117 90.089 50.0749C90.308 50.2302 90.5388 50.3592 90.7783 50.4599C90.9809 50.553 91.1624 50.5273 91.0914 50.5113C91.0486 50.5184 91.008 50.5382 90.973 50.569L91.0098 50.431L91.1493 49.9241L91.2808 49.4011C91.6228 47.9926 91.9149 46.5135 92.2043 45.0633L93.0278 40.6484L95.2246 41.2067Z" fill="#E58A7B"/>
<path d="M86.4689 48.4987L85.2639 46.4196L86.903 46.2656C86.903 46.2656 87.8291 47.5683 87.5029 48.6142L86.4689 48.4987Z" fill="#E58A7B"/>
<path d="M86.3687 45.8836L86.7159 45.6237L86.8764 44.6387L87.1422 45.0429L87.3395 47.3562L86.3687 45.8836Z" fill="#E58A7B"/>
<path d="M101.612 27.7642C101.791 30.4208 101.912 31.5405 100.981 33.087C99.5787 35.4067 96.8609 35.0923 96.0374 32.5512C95.2928 30.2636 95.1271 26.3011 97.1214 24.883C97.5592 24.5673 98.056 24.3935 98.5644 24.3781C99.0729 24.3627 99.5761 24.5062 100.026 24.795C100.476 25.0838 100.858 25.5082 101.136 26.0279C101.414 26.5476 101.578 27.1454 101.612 27.7642Z" fill="#E58A7B"/>
<path d="M96.7426 24.5827C96.297 24.8111 95.9319 25.2243 95.7119 25.7492C95.4919 26.274 95.4311 26.8768 95.5402 27.4511C95.5402 27.4511 97.253 26.5495 97.3214 29.8959C97.3714 32.3119 96.0059 35.5717 96.0059 35.5717C96.0059 35.5717 99.1815 36.3738 103.751 34.6669C105.696 33.9418 104.82 19.7091 96.7426 24.5827Z" fill="#263238"/>
<path d="M96.5794 26.0605C96.269 26.9718 96.3505 28.7749 97.5739 28.5824C98.7973 28.3899 98.4395 26.8851 98.4395 26.8851L96.5794 26.0605Z" fill="#263238"/>
<path d="M97.9426 29.6621C97.9554 30.1779 97.8013 30.6792 97.5138 31.0578C97.1297 31.5519 96.6482 31.2182 96.5167 30.5893C96.3956 30.0278 96.4509 29.0878 96.9534 28.8247C97.0642 28.7696 97.1844 28.7491 97.3033 28.765C97.4223 28.781 97.536 28.8329 97.6343 28.9161C97.7325 28.9993 97.8122 29.1111 97.8661 29.2414C97.9199 29.3716 97.9462 29.5163 97.9426 29.6621Z" fill="#E58A7B"/>
<path d="M108.79 110.942H105.356L104.99 109.482L108.908 109.595L108.79 110.942Z" fill="#008C73"/>
<path d="M102.633 54.549H102.87C102.92 54.549 102.957 54.5201 102.952 54.4816L102.838 53.1982C102.838 53.1629 102.794 53.1309 102.744 53.1309H102.502C102.454 53.1309 102.417 53.1629 102.42 53.1982L102.533 54.4816C102.544 54.5265 102.586 54.549 102.633 54.549Z" fill="#008C73"/>
<path d="M96.7508 54.549H96.9929C97.0402 54.549 97.0771 54.5201 97.0744 54.4816L96.9613 53.1982C96.9613 53.1629 96.9139 53.1309 96.8666 53.1309H96.6245C96.5746 53.1309 96.5377 53.1629 96.543 53.1982L96.6561 54.4816C96.6587 54.5265 96.7008 54.549 96.7508 54.549Z" fill="#008C73"/>
<path d="M99.092 110.942H95.656L95.4087 109.694L99.2209 109.482L99.092 110.942Z" fill="#008C73"/>
<path d="M103.852 53.3164L104.254 54.2789C104.286 54.3559 104.212 54.4329 104.11 54.4329H94.7144C94.6328 54.4329 94.5671 54.3848 94.5618 54.3238L94.4802 53.3613C94.4802 53.2939 94.546 53.2362 94.6328 53.2362H103.696C103.726 53.2314 103.756 53.2363 103.783 53.2504C103.81 53.2645 103.834 53.2873 103.852 53.3164Z" fill="#008C73"/>
<path opacity="0.1" d="M103.852 53.3164L104.254 54.2789C104.286 54.3559 104.212 54.4329 104.11 54.4329H94.7144C94.6328 54.4329 94.5671 54.3848 94.5618 54.3238L94.4802 53.3613C94.4802 53.2939 94.546 53.2362 94.6328 53.2362H103.696C103.726 53.2314 103.756 53.2363 103.783 53.2504C103.81 53.2645 103.834 53.2873 103.852 53.3164Z" fill="black"/>
<path opacity="0.6" d="M102.633 54.549H102.87C102.92 54.549 102.957 54.5201 102.952 54.4816L102.838 53.1982C102.838 53.1629 102.794 53.1309 102.744 53.1309H102.502C102.454 53.1309 102.417 53.1629 102.42 53.1982L102.533 54.4816C102.544 54.5265 102.586 54.549 102.633 54.549Z" fill="black"/>
<path opacity="0.6" d="M96.7508 54.549H96.9929C97.0402 54.549 97.0771 54.5201 97.0744 54.4816L96.9613 53.1982C96.9613 53.1629 96.9139 53.1309 96.8666 53.1309H96.6245C96.5746 53.1309 96.5377 53.1629 96.543 53.1982L96.6561 54.4816C96.6587 54.5265 96.7008 54.549 96.7508 54.549Z" fill="black"/>
<path d="M93.7119 37.7368C92.8042 38.0191 92.1702 42.5784 92.1702 42.5784L95.6746 45.482C95.6746 45.482 97.0822 40.0533 96.3744 38.8245C95.6457 37.5667 95.0379 37.3261 93.7119 37.7368Z" fill="#008C73"/>
<path opacity="0.6" d="M93.7119 37.7368C92.8042 38.0191 92.1702 42.5784 92.1702 42.5784L95.6746 45.482C95.6746 45.482 97.0822 40.0533 96.3744 38.8245C95.6457 37.5667 95.0379 37.3261 93.7119 37.7368Z" fill="white"/>
<path d="M44.0051 96.5236C44.0064 96.5129 44.0064 96.5021 44.0051 96.4915C44.0788 95.9749 44.142 95.4552 44.1946 94.929C44.9391 95.9396 45.5864 96.1963 46.0494 96.1963C46.0985 96.1997 46.1477 96.1997 46.1967 96.1963C47.1044 96.0872 47.87 95.0028 48.2489 93.3087C48.2564 93.2752 48.2579 93.2401 48.2534 93.2058C48.2488 93.1715 48.2383 93.1387 48.2226 93.1098C48.19 93.0489 48.1404 93.0045 48.0831 92.9846C47.4401 92.7701 46.766 92.7322 46.1095 92.8737C45.453 93.0152 44.8305 93.3325 44.2867 93.8028C44.3182 93.3087 44.3366 92.8146 44.3419 92.3173C44.4887 92.3487 44.6375 92.3648 44.7865 92.3654C46.2862 92.3654 47.2149 90.7387 47.2596 90.6585C47.2764 90.6276 47.2866 90.592 47.2894 90.5551C47.2921 90.5181 47.2873 90.4809 47.2754 90.4468C47.2632 90.4094 47.2448 90.3755 47.2212 90.3473C47.1976 90.3191 47.1695 90.2973 47.1386 90.2831C46.202 89.8532 45.4416 89.8147 44.8813 90.174C44.5246 90.4106 44.2506 90.7971 44.1104 91.2617C43.7141 90.2088 43.1138 89.2891 42.3612 88.5821C41.6086 87.875 40.7263 87.4017 39.7904 87.203C39.7636 87.1952 39.7357 87.1954 39.709 87.2033C39.6823 87.2113 39.6575 87.2269 39.6367 87.2488C39.6159 87.2707 39.5996 87.2984 39.5893 87.3295C39.579 87.3605 39.5748 87.3942 39.5773 87.4276C39.672 89.0864 39.9245 91.1109 41.0453 92.0799C41.4938 92.4545 42.0279 92.6466 42.5713 92.6285C43.036 92.6162 43.4972 92.5266 43.942 92.3622C43.9187 93.5445 43.8308 94.7235 43.6789 95.8915C43.0554 95.0284 41.4689 93.1098 39.3036 92.4488C39.2796 92.4397 39.2542 92.4371 39.2292 92.4411C39.2042 92.4452 39.1802 92.4558 39.1589 92.4723C39.1376 92.4888 39.1195 92.5107 39.1059 92.5366C39.0923 92.5625 39.0835 92.5916 39.08 92.6221C38.9195 94.0499 39.1984 95.2081 39.8825 95.9717C40.4507 96.6134 41.2663 96.9343 42.2503 96.9343C42.6869 96.9294 43.1221 96.8735 43.55 96.7674C43.4027 97.746 43.2211 98.6925 43.0238 99.6165C42.3424 98.9556 40.3718 97.284 38.4933 97.9802C38.4685 97.9902 38.4459 98.0069 38.4272 98.0291C38.4085 98.0514 38.3942 98.0785 38.3854 98.1086C38.3765 98.1407 38.3732 98.1748 38.3759 98.2085C38.3787 98.2423 38.3873 98.2749 38.4012 98.3043C39.0958 99.8829 39.7904 100.759 40.5823 101.064C40.7885 101.142 41.0031 101.182 41.219 101.182C41.7776 101.154 42.321 100.952 42.7975 100.595C42.5002 101.808 42.174 102.937 41.853 103.945C41.3164 103.334 40.6628 102.896 39.9518 102.672C39.2409 102.448 38.4953 102.444 37.783 102.661C37.7604 102.667 37.7391 102.679 37.7203 102.695C37.7016 102.711 37.6857 102.732 37.6736 102.756C37.6616 102.78 37.6536 102.807 37.6503 102.835C37.6469 102.863 37.6482 102.891 37.654 102.918C37.7642 103.438 37.9724 103.92 38.2619 104.325C38.5515 104.73 38.9145 105.047 39.3221 105.251C39.6199 105.401 39.939 105.478 40.2613 105.478C40.6877 105.474 41.1061 105.337 41.4768 105.081C41.0572 106.33 40.5839 107.552 40.0587 108.741C40.0364 108.801 40.0329 108.868 40.0489 108.93C40.0649 108.993 40.0994 109.045 40.1455 109.078C40.18 109.106 40.2202 109.12 40.2613 109.12C40.292 109.121 40.3223 109.112 40.3491 109.094C40.376 109.076 40.3984 109.05 40.4139 109.017C41.0507 107.562 41.6173 106.062 42.1109 104.525C42.121 104.501 42.129 104.475 42.1345 104.448C42.2328 104.147 42.3301 103.836 42.4266 103.515C43.0606 104.407 43.8315 104.901 44.605 104.901C44.6892 104.901 44.7708 104.901 44.8549 104.901C45.2837 104.849 45.6887 104.635 46.0138 104.291C46.339 103.946 46.5684 103.486 46.6703 102.976C46.6777 102.918 46.67 102.859 46.6482 102.807C46.6265 102.756 46.5919 102.713 46.5493 102.687C45.9692 102.291 45.3204 102.067 44.6559 102.035C43.9914 102.004 43.3303 102.164 42.7265 102.504C42.9344 101.769 43.1369 100.99 43.3237 100.181C43.3404 100.148 43.3495 100.111 43.35 100.072C43.4 99.8444 43.4526 99.6165 43.5 99.3823C44.2604 100.39 44.9628 100.884 45.639 100.884C46.4598 100.884 47.2175 100.143 47.9463 98.638C47.966 98.582 47.9692 98.5194 47.9553 98.4609C47.9414 98.4024 47.9112 98.3516 47.87 98.3171C46.3414 97.0337 44.5129 97.9096 43.6973 98.423C43.8131 97.8219 43.9148 97.2102 44.0025 96.5878L44.0051 96.5236Z" fill="#008C73"/>
<path opacity="0.3" d="M44.0569 96.4357C44.0582 96.4251 44.0582 96.4143 44.0569 96.4036C44.1306 95.8871 44.1937 95.3673 44.2463 94.8411C44.9909 95.8518 45.6381 96.1084 46.1012 96.1084C46.1502 96.1118 46.1994 96.1118 46.2485 96.1084C47.1562 95.9993 47.9218 94.9149 48.3006 93.2208C48.3081 93.1873 48.3096 93.1522 48.3051 93.1179C48.3006 93.0836 48.2901 93.0508 48.2743 93.0219C48.2417 92.9611 48.1922 92.9166 48.1349 92.8968C47.4918 92.6822 46.8178 92.6443 46.1613 92.7858C45.5048 92.9273 44.8822 93.2446 44.3384 93.7149C44.37 93.2208 44.3884 92.7267 44.3937 92.2294C44.5405 92.2608 44.6892 92.2769 44.8383 92.2775C46.3379 92.2775 47.2667 90.6508 47.3114 90.5706C47.3282 90.5397 47.3384 90.5041 47.3411 90.4672C47.3439 90.4302 47.3391 90.393 47.3272 90.3589C47.315 90.3215 47.2965 90.2876 47.273 90.2594C47.2494 90.2312 47.2213 90.2094 47.1904 90.1952C46.2538 89.7653 45.4934 89.7268 44.933 90.0861C44.5764 90.3227 44.3024 90.7092 44.1621 91.1738C43.7658 90.1209 43.1655 89.2012 42.4129 88.4942C41.6604 87.7871 40.7781 87.3138 39.8421 87.1151C39.8154 87.1074 39.7875 87.1075 39.7608 87.1154C39.734 87.1234 39.7093 87.139 39.6885 87.1609C39.6676 87.1828 39.6514 87.2105 39.6411 87.2416C39.6307 87.2727 39.6266 87.3063 39.629 87.3397C39.7237 88.9985 39.9763 91.023 41.0971 91.992C41.5455 92.3666 42.0797 92.5587 42.623 92.5406C43.0878 92.5283 43.5489 92.4387 43.9938 92.2743C43.9704 93.4566 43.8825 94.6356 43.7307 95.8036C43.1071 94.9405 41.5207 93.0219 39.3554 92.3609C39.3313 92.3518 39.3059 92.3492 39.2809 92.3532C39.2559 92.3573 39.232 92.3679 39.2107 92.3844C39.1894 92.4009 39.1713 92.4228 39.1577 92.4487C39.1441 92.4746 39.1352 92.5037 39.1318 92.5342C38.9713 93.962 39.2502 95.1202 39.9342 95.8838C40.5025 96.5255 41.3181 96.8464 42.3021 96.8464C42.7387 96.8415 43.1739 96.7856 43.6018 96.6795C43.4544 97.6581 43.2729 98.6046 43.0756 99.5287C42.3941 98.8677 40.4236 97.1961 38.5451 97.8923C38.5202 97.9023 38.4976 97.919 38.4789 97.9412C38.4602 97.9635 38.4459 97.9907 38.4372 98.0207C38.4282 98.0528 38.425 98.0869 38.4277 98.1206C38.4304 98.1544 38.439 98.187 38.453 98.2164C39.1476 99.795 39.8421 100.671 40.634 100.976C40.8402 101.054 41.0548 101.094 41.2707 101.094C41.8294 101.066 42.3728 100.864 42.8493 100.507C42.552 101.72 42.2258 102.849 41.9048 103.857C41.3681 103.246 40.7145 102.808 40.0036 102.584C39.2927 102.36 38.5471 102.356 37.8347 102.573C37.8122 102.579 37.7909 102.591 37.7721 102.607C37.7533 102.624 37.7374 102.644 37.7254 102.668C37.7133 102.692 37.7054 102.719 37.702 102.747C37.6987 102.775 37.6999 102.803 37.7058 102.83C37.816 103.35 38.0241 103.832 38.3137 104.237C38.6032 104.642 38.9662 104.959 39.3738 105.163C39.6716 105.313 39.9908 105.39 40.3131 105.391C40.7394 105.387 41.1579 105.25 41.5286 104.993C41.109 106.243 40.6356 107.465 40.1105 108.654C40.0881 108.713 40.0846 108.78 40.1007 108.842C40.1167 108.905 40.1511 108.957 40.1973 108.99C40.2317 109.018 40.272 109.032 40.3131 109.032C40.3437 109.033 40.374 109.024 40.4009 109.006C40.4277 108.988 40.4501 108.962 40.4657 108.929C41.1024 107.474 41.669 105.974 42.1626 104.438C42.1728 104.413 42.1807 104.387 42.1863 104.361C42.2845 104.059 42.3819 103.748 42.4783 103.427C43.1124 104.319 43.8833 104.813 44.6568 104.813C44.741 104.813 44.8225 104.813 44.9067 104.813C45.3355 104.761 45.7404 104.548 46.0656 104.203C46.3908 103.858 46.6201 103.399 46.7221 102.888C46.7295 102.83 46.7217 102.771 46.7 102.72C46.6783 102.668 46.6436 102.626 46.601 102.599C46.021 102.203 45.3721 101.979 44.7077 101.948C44.0432 101.916 43.382 102.076 42.7783 102.416C42.9861 101.682 43.1887 100.902 43.3755 100.093C43.3921 100.061 43.4012 100.023 43.4018 99.9843C43.4518 99.7565 43.5044 99.5287 43.5518 99.2944C44.3121 100.302 45.0146 100.796 45.6907 100.796C46.5116 100.796 47.2693 100.055 47.9981 98.5501C48.0178 98.4941 48.021 98.4315 48.007 98.373C47.9931 98.3145 47.963 98.2637 47.9218 98.2292C46.3932 96.9458 44.5647 97.8218 43.7491 98.3351C43.8648 97.7341 43.9666 97.1223 44.0543 96.4999L44.0569 96.4357Z" fill="black"/>
<path d="M34.4654 103.026C34.7491 103.135 35.0443 103.192 35.3415 103.196C35.719 103.194 36.0917 103.094 36.4347 102.902C36.7778 102.71 37.0833 102.431 37.3308 102.083C37.5784 101.736 37.7623 101.328 37.8702 100.887C37.9781 100.446 38.0076 99.9817 37.9567 99.5256C37.9478 99.4757 37.9241 99.4317 37.89 99.402C37.856 99.3724 37.8141 99.3592 37.7725 99.3652C37.0453 99.4633 36.3451 99.7575 35.7226 100.226C35.1001 100.695 34.5709 101.327 34.1734 102.076C33.8419 100.966 33.5314 99.7855 33.271 98.5631C33.6961 98.8697 34.1771 99.0428 34.6706 99.0668C34.8735 99.0676 35.0752 99.0286 35.2679 98.9513C36.2913 98.5374 36.9938 97.0487 37.6015 95.499C37.6125 95.4709 37.6182 95.4402 37.6182 95.4091C37.6182 95.3781 37.6125 95.3474 37.6015 95.3193C37.5926 95.2914 37.5784 95.2664 37.5601 95.2464C37.5418 95.2263 37.52 95.2117 37.4963 95.2038C35.4941 94.5076 33.6735 96.8947 33.1 97.7481C32.8991 96.7132 32.7445 95.6657 32.6369 94.6102C33.061 94.7092 33.4917 94.7607 33.9235 94.7643C34.9758 94.7643 35.8072 94.4242 36.3702 93.7536C37.0385 92.9611 37.2674 91.774 37.0359 90.3237C37.0314 90.2957 37.0221 90.2692 37.0086 90.2459C36.9952 90.2225 36.9778 90.2029 36.9577 90.1884C36.9375 90.1739 36.9151 90.1647 36.8918 90.1614C36.8686 90.1582 36.8451 90.1611 36.8228 90.1697C34.6864 90.8628 33.1789 92.8007 32.5633 93.7183C32.5633 93.529 32.5369 93.3397 32.5264 93.1504C32.5232 93.1029 32.5075 93.0578 32.4817 93.0221C32.4284 92.6666 32.3104 92.3302 32.1365 92.0376C31.9626 91.745 31.7371 91.5036 31.4767 91.3312C30.8926 90.9783 30.1217 91.0296 29.1904 91.482C29.1628 91.4951 29.1379 91.5153 29.1175 91.5414C29.097 91.5674 29.0815 91.5986 29.072 91.6328C29.0626 91.6658 29.0598 91.7012 29.0639 91.7358C29.068 91.7704 29.0789 91.8033 29.0957 91.8317C29.143 91.9087 30.148 93.5194 31.6529 93.5194C31.8154 93.5188 31.9775 93.4994 32.137 93.4616C32.1686 93.9835 32.2133 94.5065 32.2712 95.0306C31.7042 94.5605 31.0598 94.2472 30.3832 94.1125C29.7065 93.9778 29.0139 94.0251 28.3537 94.2509C28.3277 94.2587 28.3033 94.273 28.282 94.2929C28.2607 94.3128 28.2431 94.3378 28.2301 94.3664C28.2169 94.3937 28.2084 94.424 28.2053 94.4555C28.2021 94.487 28.2043 94.5189 28.2117 94.5493C28.6773 96.2754 29.5061 97.3631 30.4322 97.4561C30.4742 97.4595 30.5164 97.4595 30.5585 97.4561C31.032 97.4561 31.6871 97.1931 32.4001 96.1278C32.5744 97.3283 32.8028 98.5162 33.0842 99.686C32.237 99.1791 30.3217 98.3064 28.822 99.6347C28.8009 99.651 28.7825 99.6723 28.7681 99.6973C28.7537 99.7223 28.7436 99.7505 28.7382 99.7804C28.7328 99.8102 28.7323 99.8411 28.7368 99.8711C28.7412 99.9012 28.7505 99.9299 28.7642 99.9555C29.5719 101.473 30.3664 102.201 31.1925 102.201H31.2136C31.9003 102.201 32.5922 101.678 33.3183 100.636C33.6156 101.778 33.9419 102.862 34.276 103.87C33.4446 103.206 32.4712 103.312 31.2715 104.191C31.2455 104.211 31.2233 104.238 31.2065 104.269C31.1897 104.301 31.1787 104.336 31.1741 104.374C31.1709 104.409 31.175 104.444 31.186 104.477C31.1971 104.509 31.2147 104.538 31.2373 104.56C31.2978 104.617 32.3212 105.558 33.4657 105.558C33.9051 105.563 34.3358 105.407 34.7022 105.112C35.3497 106.947 36.0959 108.728 36.9359 110.444C36.9527 110.476 36.9761 110.503 37.0037 110.521C37.0314 110.539 37.0624 110.548 37.0937 110.547C37.1361 110.547 37.1775 110.531 37.2121 110.502C37.2584 110.467 37.2917 110.412 37.305 110.348C37.3182 110.284 37.3104 110.216 37.2832 110.158C36.1819 107.881 35.2394 105.495 34.4654 103.026Z" fill="#407BFF"/>
<path opacity="0.5" d="M34.4654 103.026C34.7491 103.135 35.0443 103.192 35.3415 103.196C35.719 103.194 36.0917 103.094 36.4347 102.902C36.7778 102.71 37.0833 102.431 37.3308 102.083C37.5784 101.736 37.7623 101.328 37.8702 100.887C37.9781 100.446 38.0076 99.9817 37.9567 99.5256C37.9478 99.4757 37.9241 99.4317 37.89 99.402C37.856 99.3724 37.8141 99.3592 37.7725 99.3652C37.0453 99.4633 36.3451 99.7575 35.7226 100.226C35.1001 100.695 34.5709 101.327 34.1734 102.076C33.8419 100.966 33.5314 99.7855 33.271 98.5631C33.6961 98.8697 34.1771 99.0428 34.6706 99.0668C34.8735 99.0676 35.0752 99.0286 35.2679 98.9513C36.2913 98.5374 36.9938 97.0487 37.6015 95.499C37.6125 95.4709 37.6182 95.4402 37.6182 95.4091C37.6182 95.3781 37.6125 95.3474 37.6015 95.3193C37.5926 95.2914 37.5784 95.2664 37.5601 95.2464C37.5418 95.2263 37.52 95.2117 37.4963 95.2038C35.4941 94.5076 33.6735 96.8947 33.1 97.7481C32.8991 96.7132 32.7445 95.6657 32.6369 94.6102C33.061 94.7092 33.4917 94.7607 33.9235 94.7643C34.9758 94.7643 35.8072 94.4242 36.3702 93.7536C37.0385 92.9611 37.2674 91.774 37.0359 90.3237C37.0314 90.2957 37.0221 90.2692 37.0086 90.2459C36.9952 90.2225 36.9778 90.2029 36.9577 90.1884C36.9375 90.1739 36.9151 90.1647 36.8918 90.1614C36.8686 90.1582 36.8451 90.1611 36.8228 90.1697C34.6864 90.8628 33.1789 92.8007 32.5633 93.7183C32.5633 93.529 32.5369 93.3397 32.5264 93.1504C32.5232 93.1029 32.5075 93.0578 32.4817 93.0221C32.4284 92.6666 32.3104 92.3302 32.1365 92.0376C31.9626 91.745 31.7371 91.5036 31.4767 91.3312C30.8926 90.9783 30.1217 91.0296 29.1904 91.482C29.1628 91.4951 29.1379 91.5153 29.1175 91.5414C29.097 91.5674 29.0815 91.5986 29.072 91.6328C29.0626 91.6658 29.0598 91.7012 29.0639 91.7358C29.068 91.7704 29.0789 91.8033 29.0957 91.8317C29.143 91.9087 30.148 93.5194 31.6529 93.5194C31.8154 93.5188 31.9775 93.4994 32.137 93.4616C32.1686 93.9835 32.2133 94.5065 32.2712 95.0306C31.7042 94.5605 31.0598 94.2472 30.3832 94.1125C29.7065 93.9778 29.0139 94.0251 28.3537 94.2509C28.3277 94.2587 28.3033 94.273 28.282 94.2929C28.2607 94.3128 28.2431 94.3378 28.2301 94.3664C28.2169 94.3937 28.2084 94.424 28.2053 94.4555C28.2021 94.487 28.2043 94.5189 28.2117 94.5493C28.6773 96.2754 29.5061 97.3631 30.4322 97.4561C30.4742 97.4595 30.5164 97.4595 30.5585 97.4561C31.032 97.4561 31.6871 97.1931 32.4001 96.1278C32.5744 97.3283 32.8028 98.5162 33.0842 99.686C32.237 99.1791 30.3217 98.3064 28.822 99.6347C28.8009 99.651 28.7825 99.6723 28.7681 99.6973C28.7537 99.7223 28.7436 99.7505 28.7382 99.7804C28.7328 99.8102 28.7323 99.8411 28.7368 99.8711C28.7412 99.9012 28.7505 99.9299 28.7642 99.9555C29.5719 101.473 30.3664 102.201 31.1925 102.201H31.2136C31.9003 102.201 32.5922 101.678 33.3183 100.636C33.6156 101.778 33.9419 102.862 34.276 103.87C33.4446 103.206 32.4712 103.312 31.2715 104.191C31.2455 104.211 31.2233 104.238 31.2065 104.269C31.1897 104.301 31.1787 104.336 31.1741 104.374C31.1709 104.409 31.175 104.444 31.186 104.477C31.1971 104.509 31.2147 104.538 31.2373 104.56C31.2978 104.617 32.3212 105.558 33.4657 105.558C33.9051 105.563 34.3358 105.407 34.7022 105.112C35.3497 106.947 36.0959 108.728 36.9359 110.444C36.9527 110.476 36.9761 110.503 37.0037 110.521C37.0314 110.539 37.0624 110.548 37.0937 110.547C37.1361 110.547 37.1775 110.531 37.2121 110.502C37.2584 110.467 37.2917 110.412 37.305 110.348C37.3182 110.284 37.3104 110.216 37.2832 110.158C36.1819 107.881 35.2394 105.495 34.4654 103.026Z" fill="white"/>
<path d="M41.7005 115.904H35.4335L34.96 108.002H42.174L41.7005 115.904Z" fill="#263238"/>
<path d="M42.6395 107.471H34.4915V108.809H42.6395V107.471Z" fill="#263238"/>
<path d="M38.9377 69.166H24.4701C23.4545 69.166 22.6311 70.1701 22.6311 71.4087V113.661C22.6311 114.9 23.4545 115.904 24.4701 115.904H38.9377C39.9534 115.904 40.7768 114.9 40.7768 113.661V71.4087C40.7768 70.1701 39.9534 69.166 38.9377 69.166Z" fill="#008C73"/>
<path opacity="0.6" d="M38.9377 69.166H24.4701C23.4545 69.166 22.6311 70.1701 22.6311 71.4087V113.661C22.6311 114.9 23.4545 115.904 24.4701 115.904H38.9377C39.9534 115.904 40.7768 114.9 40.7768 113.661V71.4087C40.7768 70.1701 39.9534 69.166 38.9377 69.166Z" fill="black"/>
<path d="M38.0564 69.166H23.5888C22.5731 69.166 21.7498 70.1701 21.7498 71.4087V113.661C21.7498 114.9 22.5731 115.904 23.5888 115.904H38.0564C39.0721 115.904 39.8954 114.9 39.8954 113.661V71.4087C39.8954 70.1701 39.0721 69.166 38.0564 69.166Z" fill="#008C73"/>
<path opacity="0.3" d="M38.0564 69.166H23.5888C22.5731 69.166 21.7498 70.1701 21.7498 71.4087V113.661C21.7498 114.9 22.5731 115.904 23.5888 115.904H38.0564C39.0721 115.904 39.8954 114.9 39.8954 113.661V71.4087C39.8954 70.1701 39.0721 69.166 38.0564 69.166Z" fill="black"/>
<path d="M39.8954 71.7402H21.7498V111.904H39.8954V71.7402Z" fill="#FAFAFA"/>
<path opacity="0.18" d="M39.9054 71.6562H21.7598V111.82H39.9054V71.6562Z" fill="#008C73"/>
<path opacity="0.4" d="M28.3344 71.7402L22.449 111.904H28.2765L34.1646 71.7402H28.3344Z" fill="white"/>
<path opacity="0.4" d="M35.5859 71.7402L29.7004 111.904H32.6155L38.501 71.7402H35.5859Z" fill="white"/>
<path d="M31.6416 113.763C31.6416 113.961 31.5936 114.154 31.5037 114.318C31.4138 114.482 31.286 114.61 31.1365 114.685C30.987 114.761 30.8224 114.781 30.6637 114.742C30.505 114.704 30.3592 114.609 30.2448 114.469C30.1303 114.329 30.0524 114.152 30.0208 113.958C29.9893 113.765 30.0055 113.564 30.0674 113.382C30.1293 113.199 30.2342 113.043 30.3688 112.934C30.5033 112.824 30.6615 112.766 30.8234 112.766C31.0404 112.766 31.2485 112.871 31.4019 113.058C31.5554 113.245 31.6416 113.499 31.6416 113.763Z" fill="#008C73"/>
<path opacity="0.5" d="M31.6416 113.763C31.6416 113.961 31.5936 114.154 31.5037 114.318C31.4138 114.482 31.286 114.61 31.1365 114.685C30.987 114.761 30.8224 114.781 30.6637 114.742C30.505 114.704 30.3592 114.609 30.2448 114.469C30.1303 114.329 30.0524 114.152 30.0208 113.958C29.9893 113.765 30.0055 113.564 30.0674 113.382C30.1293 113.199 30.2342 113.043 30.3688 112.934C30.5033 112.824 30.6615 112.766 30.8234 112.766C31.0404 112.766 31.2485 112.871 31.4019 113.058C31.5554 113.245 31.6416 113.499 31.6416 113.763Z" fill="black"/>
<path d="M32.9684 70.7039C33.1282 70.7039 33.2578 70.5459 33.2578 70.351C33.2578 70.1561 33.1282 69.998 32.9684 69.998C32.8085 69.998 32.679 70.1561 32.679 70.351C32.679 70.5459 32.8085 70.7039 32.9684 70.7039Z" fill="#008C73"/>
<path d="M31.7869 70.7039H28.6771C28.6003 70.7039 28.5267 70.6667 28.4725 70.6005C28.4182 70.5343 28.3877 70.4446 28.3877 70.351C28.3884 70.2576 28.4191 70.1684 28.4732 70.1023C28.5273 70.0363 28.6006 69.9989 28.6771 69.998H31.7843C31.8608 69.9989 31.934 70.0363 31.9881 70.1023C32.0423 70.1684 32.073 70.2576 32.0737 70.351C32.0737 70.444 32.0435 70.5333 31.9898 70.5994C31.9361 70.6655 31.8632 70.7031 31.7869 70.7039Z" fill="#008C73"/>
<path opacity="0.5" d="M32.9684 70.7039C33.1282 70.7039 33.2578 70.5459 33.2578 70.351C33.2578 70.1561 33.1282 69.998 32.9684 69.998C32.8085 69.998 32.679 70.1561 32.679 70.351C32.679 70.5459 32.8085 70.7039 32.9684 70.7039Z" fill="black"/>
<path opacity="0.5" d="M31.7869 70.7039H28.6771C28.6003 70.7039 28.5267 70.6667 28.4725 70.6005C28.4182 70.5343 28.3877 70.4446 28.3877 70.351C28.3884 70.2576 28.4191 70.1684 28.4732 70.1023C28.5273 70.0363 28.6006 69.9989 28.6771 69.998H31.7843C31.8608 69.9989 31.934 70.0363 31.9881 70.1023C32.0423 70.1684 32.073 70.2576 32.0737 70.351C32.0737 70.444 32.0435 70.5333 31.9898 70.5994C31.9361 70.6655 31.8632 70.7031 31.7869 70.7039Z" fill="black"/>
</svg>
