<svg width="64" height="64" viewBox="0 0 64 64" fill="none" xmlns="http://www.w3.org/2000/svg">
<path d="M40.0001 53.3334C34.0445 53.3334 29.0001 51.2667 24.8668 47.1334C20.7334 43.0001 18.6668 37.9556 18.6668 32.0001C18.6668 26.089 20.7334 21.0552 24.8668 16.8987C29.0001 12.7423 34.0445 10.665 40.0001 10.6667C45.9112 10.6667 50.945 12.7441 55.1014 16.8987C59.2579 21.0534 61.3352 26.0872 61.3334 32.0001C61.3334 37.9556 59.2561 43.0001 55.1014 47.1334C50.9468 51.2667 45.913 53.3334 40.0001 53.3334ZM42.6668 30.9334V24.0001C42.6668 23.2445 42.4108 22.6107 41.8988 22.0987C41.3868 21.5867 40.7539 21.3316 40.0001 21.3334C39.2445 21.3334 38.6108 21.5894 38.0988 22.1014C37.5868 22.6134 37.3316 23.2463 37.3334 24.0001V32.0667C37.3334 32.4223 37.4116 32.7672 37.5681 33.1014C37.7245 33.4356 37.913 33.713 38.1334 33.9334L44.2001 40.0001C44.7334 40.5334 45.3672 40.8001 46.1014 40.8001C46.8356 40.8001 47.4685 40.5334 48.0001 40.0001C48.5334 39.4667 48.8001 38.8339 48.8001 38.1014C48.8001 37.369 48.5334 36.7352 48.0001 36.2001L42.6668 30.9334ZM8.00009 24.0001C7.24454 24.0001 6.61076 23.7441 6.09876 23.2321C5.58676 22.7201 5.33165 22.0872 5.33342 21.3334C5.33342 20.5779 5.58942 19.9441 6.10142 19.4321C6.61342 18.9201 7.24631 18.665 8.00009 18.6667H13.3334C14.089 18.6667 14.7228 18.9227 15.2348 19.4347C15.7468 19.9467 16.0019 20.5796 16.0001 21.3334C16.0001 22.089 15.7441 22.7228 15.2321 23.2348C14.7201 23.7468 14.0872 24.0019 13.3334 24.0001H8.00009ZM5.33342 34.6667C4.57787 34.6667 3.94409 34.4107 3.43209 33.8987C2.92009 33.3867 2.66498 32.7539 2.66676 32.0001C2.66676 31.2445 2.92276 30.6107 3.43476 30.0987C3.94676 29.5868 4.57965 29.3316 5.33342 29.3334H13.3334C14.089 29.3334 14.7228 29.5894 15.2348 30.1014C15.7468 30.6134 16.0019 31.2463 16.0001 32.0001C16.0001 32.7556 15.7441 33.3894 15.2321 33.9014C14.7201 34.4134 14.0872 34.6685 13.3334 34.6667H5.33342ZM8.00009 45.3334C7.24454 45.3334 6.61076 45.0774 6.09876 44.5654C5.58676 44.0534 5.33165 43.4205 5.33342 42.6667C5.33342 41.9112 5.58942 41.2774 6.10142 40.7654C6.61342 40.2534 7.24631 39.9983 8.00009 40.0001H13.3334C14.089 40.0001 14.7228 40.2561 15.2348 40.7681C15.7468 41.2801 16.0019 41.913 16.0001 42.6667C16.0001 43.4223 15.7441 44.0561 15.2321 44.5681C14.7201 45.0801 14.0872 45.3352 13.3334 45.3334H8.00009Z" fill="#008C73"/>
</svg>
